<svg width="34" height="34" viewBox="0 0 34 34" fill="none" xmlns="http://www.w3.org/2000/svg">
<path d="M28.8824 10.1398L17.0002 17.0001L5.11328 10.1289" stroke="#DD2A3B" stroke-width="2" stroke-linecap="round" stroke-linejoin="round"/>
<path d="M17 17V29.75" stroke="#DD2A3B" stroke-width="2" stroke-linecap="round" stroke-linejoin="round"/>
<path d="M16.0007 3.41036C16.6195 3.05309 17.3818 3.05309 18.0007 3.41036L28.2693 9.33899C28.8881 9.69626 29.2693 10.3565 29.2693 11.071V22.9283C29.2693 23.6428 28.8881 24.3031 28.2693 24.6604L18.0007 30.589C17.3818 30.9463 16.6195 30.9463 16.0007 30.589L5.73196 24.6604C5.11316 24.3031 4.73196 23.6428 4.73196 22.9283V11.071C4.73196 10.3565 5.11316 9.69626 5.73196 9.33899L16.0007 3.41036Z" stroke="#DD2A3B" stroke-width="2" stroke-linecap="round" stroke-linejoin="round"/>
<path d="M12.041 6.375L22.666 12.75" stroke="#DD2A3B" stroke-width="2" stroke-linecap="round" stroke-linejoin="round"/>
</svg>
