<?xml version="1.0" standalone="no"?>
<!DOCTYPE svg PUBLIC "-//W3C//DTD SVG 20010904//EN"
 "http://www.w3.org/TR/2001/REC-SVG-20010904/DTD/svg10.dtd">
<svg version="1.0" xmlns="http://www.w3.org/2000/svg"
 width="1670.000000pt" height="1000.000000pt" viewBox="0 0 1670.000000 1000.000000"
 preserveAspectRatio="xMidYMid meet">

<g transform="translate(0.000000,1000.000000) scale(0.100000,-0.100000)"
fill="#000000" stroke="none">
<path d="M218 9789 c-21 -12 -24 -59 -6 -77 7 -7 21 -12 33 -12 12 0 26 5 33
12 19 19 15 66 -7 78 -24 12 -31 12 -53 -1z m57 -44 c0 -27 -3 -30 -30 -30
-21 0 -31 5 -33 18 -6 33 6 49 35 45 24 -3 28 -8 28 -33z"/>
<path d="M7483 9493 c42 -2 112 -2 155 0 42 1 7 3 -78 3 -85 0 -120 -2 -77 -3z"/>
<path d="M1382 9473 l1377 -3 3 -23 c3 -20 4 -20 9 6 l6 27 -1386 -2 -1386 -3
1377 -2z"/>
<path d="M2762 9390 c0 -19 2 -27 5 -17 2 9 2 25 0 35 -3 9 -5 1 -5 -18z"/>
<path d="M388 9313 c7 -3 16 -2 19 1 4 3 -2 6 -13 5 -11 0 -14 -3 -6 -6z"/>
<path d="M1286 9311 c11 -5 28 -27 39 -50 10 -23 21 -41 25 -41 3 0 16 20 28
45 35 71 52 60 52 -33 0 -64 4 -82 18 -96 18 -16 65 -17 89 -3 7 4 14 3 18 -3
8 -13 25 -13 25 0 0 6 -7 10 -15 10 -12 0 -15 13 -15 60 l0 60 38 0 c50 0 62
-14 62 -72 0 -36 -4 -48 -15 -48 -8 0 -15 -4 -15 -10 0 -13 17 -13 25 0 5 8
11 7 21 -1 7 -6 24 -9 37 -5 17 4 33 -2 53 -19 37 -32 59 -31 94 3 23 23 31
26 50 18 15 -7 28 -6 42 3 14 8 24 9 30 3 7 -7 16 -7 28 1 14 8 22 8 35 -3 14
-12 18 -12 25 1 8 11 13 12 30 2 24 -16 30 -16 30 -3 0 6 -7 10 -15 10 -11 0
-15 12 -15 46 0 59 -24 55 -28 -4 -2 -29 -8 -42 -18 -42 -10 0 -14 13 -14 46
0 59 -24 55 -28 -4 -2 -29 -8 -42 -18 -42 -11 0 -14 14 -14 60 l0 60 73 -3 72
-2 5 -52 c4 -36 12 -57 25 -67 24 -19 57 -20 73 -4 9 9 15 9 24 0 15 -15 28
-16 28 -2 0 6 -7 10 -15 10 -12 0 -15 13 -15 60 l0 60 39 0 c22 0 43 -5 46
-10 8 -12 35 13 35 32 0 10 -2 10 -9 -1 -10 -16 -124 -23 -152 -10 -9 5 -28 1
-44 -7 -21 -11 -31 -11 -41 -3 -8 6 -27 9 -44 6 -16 -4 -31 -3 -34 2 -7 10
-64 2 -72 -11 -3 -5 -11 -4 -19 2 -26 21 -69 8 -86 -27 -9 -18 -22 -39 -28
-47 -9 -11 -7 -15 9 -19 27 -7 26 -42 -2 -61 -31 -22 -45 -20 -75 10 -18 18
-32 24 -48 20 -36 -9 -55 3 -55 35 0 25 5 30 30 35 16 4 27 10 24 15 -3 5 -16
6 -30 3 -18 -5 -24 -2 -24 10 0 19 47 33 69 19 9 -6 18 -30 22 -59 6 -46 13
-35 9 14 -3 35 18 52 64 53 38 1 39 2 11 8 -18 5 -40 2 -55 -5 -20 -10 -30
-10 -50 1 -20 11 -29 11 -50 0 -20 -11 -30 -11 -49 -1 -23 13 -67 10 -86 -5
-6 -4 -18 -1 -29 6 -13 10 -25 11 -42 5 -20 -8 -24 -6 -24 9 0 24 -25 45 -45
37 -8 -3 -23 -21 -32 -41 -9 -19 -19 -35 -22 -35 -3 0 -15 17 -26 37 -11 22
-29 39 -40 40 -19 3 -19 3 1 -6z m242 -63 c7 -7 12 -33 12 -59 0 -45 -1 -47
-32 -52 -18 -2 -41 0 -50 5 -34 17 -15 68 24 68 10 0 18 5 18 10 0 6 -11 8
-25 4 -18 -4 -25 -2 -25 8 0 8 3 18 7 21 11 11 58 8 71 -5z m420 0 c7 -7 12
-22 12 -35 0 -20 -5 -23 -36 -23 -31 0 -35 -2 -24 -15 9 -11 17 -12 30 -5 25
13 30 13 30 -5 0 -9 -11 -20 -25 -27 -53 -24 -96 44 -65 103 12 22 59 26 78 7z
m270 0 c7 -7 12 -22 12 -35 0 -20 -5 -23 -36 -23 -31 0 -35 -2 -24 -15 9 -11
17 -12 30 -5 26 14 38 -9 15 -27 -24 -17 -36 -17 -63 3 -24 17 -30 61 -12 95
12 22 59 26 78 7z"/>
<path d="M1480 9170 c0 -5 7 -7 15 -4 8 4 15 8 15 10 0 2 -7 4 -15 4 -8 0 -15
-4 -15 -10z"/>
<path d="M1908 9223 c7 -3 16 -2 19 1 4 3 -2 6 -13 5 -11 0 -14 -3 -6 -6z"/>
<path d="M2178 9223 c7 -3 16 -2 19 1 4 3 -2 6 -13 5 -11 0 -14 -3 -6 -6z"/>
<path d="M2368 9303 c7 -3 16 -2 19 1 4 3 -2 6 -13 5 -11 0 -14 -3 -6 -6z"/>
<path d="M363 9220 c0 -47 2 -66 4 -42 2 23 2 61 0 85 -2 23 -4 4 -4 -43z"/>
<path d="M411 9223 c-1 -67 -4 -83 -16 -83 -8 0 -15 -4 -15 -10 0 -14 13 -13
28 2 9 9 15 9 24 0 15 -15 28 -16 28 -2 0 6 -7 10 -15 10 -12 0 -15 13 -15 60
l0 60 45 0 c29 0 45 -4 45 -12 0 -9 3 -9 9 1 14 22 38 6 47 -31 l7 -33 12 35
c11 34 45 55 45 29 0 -10 3 -10 12 -1 18 18 65 15 77 -5 6 -10 11 -13 11 -7 0
22 -26 33 -79 32 -38 -1 -56 -6 -65 -19 -11 -17 -13 -17 -24 1 -10 16 -22 19
-81 17 -63 -2 -71 0 -74 18 -2 11 -5 -17 -6 -62z"/>
<path d="M1255 9227 c0 -82 14 -119 38 -99 19 16 27 60 17 86 -7 16 -9 9 -9
-26 -1 -36 -5 -48 -16 -48 -12 0 -15 16 -15 80 0 44 -3 80 -7 80 -5 0 -8 -33
-8 -73z"/>
<path d="M851 9274 c0 -11 3 -14 6 -6 3 7 2 16 -1 19 -3 4 -6 -2 -5 -13z"/>
<path d="M896 9275 c-3 -9 0 -15 9 -15 9 0 12 6 9 15 -4 8 -7 15 -9 15 -2 0
-5 -7 -9 -15z"/>
<path d="M2390 9275 c0 -8 4 -15 10 -15 5 0 7 7 4 15 -4 8 -8 15 -10 15 -2 0
-4 -7 -4 -15z"/>
<path d="M775 9270 c-27 -6 -25 -7 18 -11 26 -2 47 -3 47 -2 0 10 -41 18 -65
13z"/>
<path d="M1070 9272 c-14 -2 -30 -8 -37 -13 -7 -7 -14 -6 -18 1 -11 17 -64 11
-85 -10 -11 -11 -23 -20 -27 -20 -5 0 -8 -13 -8 -30 0 -17 5 -30 12 -30 7 0
17 -9 23 -20 14 -25 52 -35 80 -20 16 9 25 9 33 1 14 -14 27 -14 27 -1 0 6 -7
10 -15 10 -12 0 -15 13 -15 59 l0 58 46 1 c26 1 48 3 51 5 6 7 -40 13 -67 9z
m-52 -24 c31 -31 3 -118 -39 -118 -24 0 -59 38 -59 65 0 51 65 86 98 53z"/>
<path d="M964 9216 c-9 -23 0 -51 16 -51 10 0 15 10 15 29 0 32 -21 47 -31 22z
m26 -16 c0 -11 -4 -20 -10 -20 -5 0 -10 9 -10 20 0 11 5 20 10 20 6 0 10 -9
10 -20z"/>
<path d="M2762 9260 c0 -14 2 -19 5 -12 2 6 2 18 0 25 -3 6 -5 1 -5 -13z"/>
<path d="M15062 9272 c-9 -6 -12 -27 -10 -63 l3 -54 35 2 c74 3 83 101 10 118
-14 3 -31 1 -38 -3z m66 -45 c4 -33 -13 -57 -39 -57 -16 0 -19 8 -19 46 0 44
1 45 28 42 21 -2 28 -9 30 -31z"/>
<path d="M15572 9240 c-3 -54 -13 -73 -38 -68 -15 2 -20 14 -22 51 -2 26 -8
47 -14 47 -18 0 -3 -92 18 -107 22 -16 26 -16 48 0 14 10 16 24 13 67 -3 53
-3 53 -5 10z"/>
<path d="M1176 9248 c-15 -21 -16 -21 -17 -3 0 11 -3 15 -5 9 -3 -6 -1 -21 4
-34 8 -22 9 -22 21 8 7 17 20 33 29 35 15 4 15 5 0 6 -9 0 -24 -9 -32 -21z"/>
<path d="M2421 9244 c0 -11 3 -14 6 -6 3 7 2 16 -1 19 -3 4 -6 -2 -5 -13z"/>
<path d="M1195 9175 c-16 -42 -34 -75 -42 -75 -7 0 -13 -5 -13 -10 0 -7 6 -7
18 -1 18 10 80 147 71 156 -3 2 -18 -29 -34 -70z"/>
<path d="M848 9190 c3 -38 8 -50 28 -61 19 -10 27 -10 37 0 9 10 8 11 -6 5
-27 -10 -47 14 -47 57 0 21 -3 40 -7 42 -5 3 -6 -16 -5 -43z"/>
<path d="M15171 9226 c-29 -34 10 -88 47 -66 14 8 12 9 -10 10 -18 0 -28 5
-28 15 0 9 10 15 26 15 19 0 25 5 22 18 -4 22 -41 27 -57 8z m44 -6 c3 -5 -3
-10 -15 -10 -12 0 -18 5 -15 10 3 6 10 10 15 10 5 0 12 -4 15 -10z"/>
<path d="M15251 9192 l2 -47 6 40 c8 51 36 57 36 8 0 -42 13 -43 17 -1 4 46
28 49 28 4 0 -20 5 -36 10 -36 12 0 13 50 2 66 -4 6 -28 12 -54 12 l-48 1 1
-47z"/>
<path d="M15380 9225 c-15 -18 -6 -61 15 -69 37 -14 65 26 45 64 -13 24 -42
26 -60 5z m48 -23 c4 -26 -26 -42 -38 -21 -11 16 7 52 23 46 7 -2 13 -13 15
-25z"/>
<path d="M15604 9228 c-4 -6 2 -19 14 -29 28 -22 27 -27 0 -32 -21 -3 -21 -4
-5 -12 13 -5 24 -2 35 10 16 16 16 18 -5 32 -26 17 -31 38 -8 29 8 -3 15 -1
15 4 0 14 -37 12 -46 -2z"/>
<path d="M15677 9233 c-12 -12 -7 -60 8 -73 9 -7 23 -9 37 -4 22 8 22 8 -6 13
-36 7 -36 25 -1 29 19 3 25 8 21 19 -3 8 -6 17 -6 19 0 7 -46 5 -53 -3z m43
-13 c0 -5 -7 -10 -15 -10 -8 0 -15 5 -15 10 0 6 7 10 15 10 8 0 15 -4 15 -10z"/>
<path d="M15762 9190 c1 -40 2 -41 5 -10 2 19 11 40 20 47 13 10 13 12 -6 10
-18 -1 -21 -7 -19 -47z"/>
<path d="M471 9183 l2 -48 7 40 7 40 2 -36 c1 -45 22 -67 41 -44 11 14 15 14
36 0 21 -14 24 -13 40 8 l17 23 23 -23 c27 -27 52 -29 80 -8 18 14 17 14 -9 5
-16 -5 -32 -10 -37 -10 -16 0 -50 43 -51 64 0 15 -4 10 -13 -14 -19 -51 -46
-47 -68 10 l-17 45 0 -47 c-1 -35 -5 -48 -15 -48 -10 0 -16 13 -18 42 -4 61
-28 63 -27 1z"/>
<path d="M678 9223 c7 -3 16 -2 19 1 4 3 -2 6 -13 5 -11 0 -14 -3 -6 -6z"/>
<path d="M782 9183 l1 -48 7 45 6 45 5 -45 6 -45 1 48 c2 36 -2 47 -13 47 -11
0 -15 -11 -13 -47z"/>
<path d="M1084 9216 c-3 -8 -4 -29 -1 -48 3 -30 4 -29 5 10 2 51 17 54 37 6
10 -25 12 -41 5 -54 -6 -10 -10 -22 -10 -27 1 -4 7 4 15 19 14 24 13 32 -1 68
-16 40 -40 52 -50 26z"/>
<path d="M1382 9197 c-14 -39 -29 -46 -51 -24 -11 10 -13 9 -9 -3 7 -22 40
-25 55 -4 12 17 13 17 13 -3 0 -25 25 -49 35 -33 3 5 -1 10 -9 10 -11 0 -16
13 -18 47 l-3 47 -13 -37z"/>
<path d="M1587 9223 c-9 -17 -1 -77 11 -80 8 -3 12 9 12 41 0 41 -11 60 -23
39z"/>
<path d="M1790 9220 c0 -5 7 -10 15 -10 8 0 15 5 15 10 0 6 -7 10 -15 10 -8 0
-15 -4 -15 -10z"/>
<path d="M2274 9218 c-4 -6 -3 -8 4 -4 7 4 12 -9 15 -36 l4 -43 1 48 c2 45 -9
60 -24 35z"/>
<path d="M2340 9185 c0 -33 -4 -45 -15 -45 -8 0 -15 -4 -15 -10 0 -13 13 -13
27 1 8 8 16 7 30 -2 39 -24 84 21 48 47 -11 8 -16 21 -12 34 3 11 1 20 -4 20
-5 0 -9 -13 -9 -30 0 -20 5 -30 15 -30 8 0 15 -6 15 -14 0 -17 -24 -28 -45
-20 -18 7 -29 46 -22 74 3 11 1 20 -4 20 -5 0 -9 -20 -9 -45z"/>
<path d="M2762 9195 c0 -16 2 -22 5 -12 2 9 2 23 0 30 -3 6 -5 -1 -5 -18z"/>
<path d="M670 9179 c0 -7 11 -9 29 -6 19 4 31 2 35 -6 2 -7 5 -4 5 6 1 13 -7
17 -34 17 -19 0 -35 -5 -35 -11z"/>
<path d="M1700 9180 c-8 -5 -12 -11 -9 -14 2 -3 11 -1 19 4 8 5 12 11 9 14 -2
3 -11 1 -19 -4z"/>
<path d="M2761 9144 c0 -11 3 -14 6 -6 3 7 2 16 -1 19 -3 4 -6 -2 -5 -13z"/>
<path d="M750 9130 c0 -5 5 -10 10 -10 6 0 10 5 10 10 0 6 -4 10 -10 10 -5 0
-10 -4 -10 -10z"/>
<path d="M820 9129 c0 -5 5 -7 10 -4 6 3 10 8 10 11 0 2 -4 4 -10 4 -5 0 -10
-5 -10 -11z"/>
<path d="M1793 9133 c9 -2 23 -2 30 0 6 3 -1 5 -18 5 -16 0 -22 -2 -12 -5z"/>
<path d="M2762 9090 c0 -19 2 -27 5 -17 2 9 2 25 0 35 -3 9 -5 1 -5 -18z"/>
<path d="M2763 9005 c0 -27 2 -38 4 -22 2 15 2 37 0 50 -2 12 -4 0 -4 -28z"/>
<path d="M0 8170 c0 -507 3 -770 10 -770 14 0 14 -1026 0 -1035 -7 -4 -10
-1077 -10 -3186 l0 -3179 1390 0 1390 0 0 4470 0 4470 -1390 0 -1390 0 0 -770z
m826 574 c-4 -10 2 -14 18 -14 13 0 27 -7 30 -16 10 -25 7 -74 -4 -74 -5 0
-10 16 -10 35 0 24 -5 35 -15 35 -10 0 -15 -10 -15 -29 0 -17 -4 -33 -10 -36
-6 -4 -10 18 -10 60 0 44 4 64 11 60 6 -4 8 -13 5 -21z m106 -16 c51 -7 45
-88 -6 -88 -23 0 -24 4 -28 61 -3 58 4 93 10 51 2 -12 12 -22 24 -24z m348
-21 l0 -64 -31 -1 c-22 0 -33 5 -41 22 -13 30 5 66 32 66 13 0 20 7 20 20 0
11 5 20 10 20 6 0 10 -28 10 -63z m-927 41 c12 -6 27 -18 34 -27 16 -21 16
-74 1 -89 -18 -18 -127 -16 -134 2 -12 30 -11 52 2 78 23 45 57 58 97 36z
m277 -4 c20 -23 16 -75 -5 -90 -10 -8 -31 -14 -47 -14 -28 0 -28 1 -28 60 l0
60 34 0 c18 0 39 -7 46 -16z m88 -61 c3 -42 2 -43 -27 -43 -25 0 -31 4 -31 21
0 12 8 23 20 26 26 7 26 23 -1 23 -12 0 -17 4 -14 11 4 5 17 9 28 7 18 -2 23
-11 25 -45z m72 38 c0 -5 -10 -12 -22 -14 l-23 -4 23 -8 c30 -10 26 -49 -5
-53 -13 -2 -23 2 -23 8 0 7 6 10 14 7 24 -10 28 7 5 24 -14 10 -20 22 -16 33
7 17 47 23 47 7z m259 -13 c13 -36 -2 -63 -35 -63 -24 0 -30 5 -32 28 -5 42 4
57 33 57 17 0 28 -7 34 -22z m79 -26 l3 -43 -33 3 c-39 4 -45 28 -10 43 28 12
29 25 1 25 -12 0 -17 4 -14 11 4 5 17 9 28 7 18 -2 23 -11 25 -46z m72 38 c0
-6 -6 -10 -14 -10 -16 0 -31 -34 -21 -49 3 -5 1 -12 -5 -16 -6 -4 -10 10 -10
37 0 39 2 44 25 46 14 1 25 -3 25 -8z m-850 -526 c0 -8 9 -14 20 -14 17 0 20
-7 20 -45 l0 -46 -67 3 c-66 3 -68 4 -71 31 -3 22 1 30 17 34 14 4 21 13 21
30 0 13 8 35 17 47 l17 23 13 -25 c7 -13 13 -31 13 -38z m265 46 c-3 -5 -17
-10 -31 -10 -15 0 -24 -6 -24 -15 0 -9 9 -15 25 -15 31 0 33 -17 3 -22 -14 -2
-25 -13 -29 -28 -5 -17 -7 -4 -8 38 l-1 62 36 0 c21 0 33 -4 29 -10z m35 0 c0
-5 -4 -10 -10 -10 -5 0 -10 5 -10 10 0 6 5 10 10 10 6 0 10 -4 10 -10z m0 -65
c0 -25 -4 -45 -10 -45 -11 0 -14 73 -3 83 11 12 13 8 13 -38z m70 35 c0 -4 -7
-10 -15 -14 -9 -3 -15 -18 -15 -36 0 -16 -4 -30 -10 -30 -5 0 -10 19 -10 43 0
38 2 42 25 43 14 1 25 -2 25 -6z m120 -10 c12 -19 13 -70 1 -70 -6 0 -11 14
-13 32 -4 46 -28 49 -28 4 0 -20 -4 -36 -10 -36 -5 0 -10 16 -10 36 0 45 -24
42 -28 -4 -2 -18 -7 -32 -13 -32 -10 0 -12 49 -4 72 8 20 93 18 105 -2z m-462
-471 c21 -8 23 -14 20 -65 -3 -55 -4 -57 -40 -71 -34 -14 -41 -13 -75 4 -36
17 -38 20 -38 68 0 47 2 51 35 67 33 17 45 17 98 -3z m482 -49 l0 -70 -34 0
c-22 0 -36 6 -40 17 -6 15 -8 15 -19 -1 -19 -26 -60 -17 -71 16 -8 22 -6 32 9
48 22 24 51 26 63 4 8 -14 10 -14 21 0 8 9 19 16 26 16 7 0 15 9 18 20 3 11
10 20 16 20 7 0 11 -26 11 -70z m-238 41 c8 -13 19 -17 40 -14 21 3 28 0 28
-11 0 -9 -7 -16 -15 -16 -10 0 -15 -11 -15 -35 0 -24 -5 -35 -15 -35 -11 0
-15 11 -15 36 0 32 -1 34 -16 20 -8 -9 -22 -16 -30 -16 -8 0 -14 -9 -14 -20 0
-11 -7 -20 -15 -20 -12 0 -15 14 -15 65 l0 65 35 0 c23 0 39 -6 47 -19z m452
-17 c7 -8 16 -8 27 -1 18 11 49 3 49 -13 0 -5 -10 -10 -22 -11 l-23 0 23 -10
c17 -6 22 -15 20 -31 -3 -20 -9 -23 -55 -25 l-53 -2 0 34 c0 32 -2 35 -31 35
-26 0 -30 -3 -27 -22 2 -18 8 -22 27 -20 16 3 22 -1 19 -10 -7 -21 -50 -22
-65 -2 -12 17 -13 17 -13 0 0 -14 -7 -17 -37 -14 -38 3 -38 3 -41 51 -4 55 15
65 20 10 2 -21 8 -38 13 -38 6 0 11 17 13 38 3 38 18 49 29 22 5 -14 7 -14 24
0 11 10 25 14 38 10 14 -4 23 0 32 17 9 17 14 19 17 8 3 -8 10 -19 16 -26z
m1528 -21 c17 -15 19 -15 38 2 30 27 35 12 6 -21 l-24 -29 -26 24 c-38 36 -33
59 6 24z m-1689 -512 c9 -27 17 -53 17 -57 -1 -14 -24 29 -27 51 -7 38 -21 38
-32 -1 -10 -37 -31 -77 -31 -62 0 15 42 118 48 118 4 0 15 -22 25 -49z m97 -5
c0 -57 -18 -78 -46 -55 -26 21 -11 79 20 79 5 0 2 -6 -8 -13 -21 -16 -18 -62
4 -62 11 0 16 14 18 53 4 68 12 67 12 -2z m90 -1 c0 -30 -4 -55 -8 -55 -5 0
-7 13 -4 29 5 36 -16 51 -35 26 -11 -16 -13 -16 -13 -3 0 17 26 32 41 22 5 -3
9 4 9 15 0 12 2 21 5 21 3 0 5 -25 5 -55z m125 20 c0 -25 -4 -31 -27 -33 -20
-2 -28 -10 -31 -30 -2 -15 -5 1 -6 36 l-1 63 33 -3 c28 -3 32 -6 32 -33z m235
-20 c0 -30 -3 -55 -7 -55 -5 0 -6 25 -5 55 5 71 12 71 12 0z m-177 10 c-12 -8
-24 -28 -26 -43 -3 -22 -4 -20 -6 10 -1 27 3 38 17 41 33 9 36 7 15 -8z m85 3
c24 -24 8 -79 -22 -78 -6 0 -3 5 7 11 21 13 22 58 1 66 -21 8 -36 -16 -29 -45
4 -15 2 -21 -5 -17 -24 15 -4 75 25 75 6 0 16 -5 23 -12z m60 1 c-21 -12 -24
-49 -5 -68 10 -10 9 -11 -5 -6 -32 13 -17 86 17 85 5 0 2 -5 -7 -11z m122 -29
c0 -22 -3 -40 -8 -40 -4 0 -6 18 -4 40 2 22 6 40 8 40 2 0 4 -18 4 -40z m74
31 c4 -5 -3 -7 -13 -4 -13 3 -21 -2 -25 -15 -10 -30 4 -54 27 -48 15 4 17 2 8
-7 -28 -28 -67 37 -41 69 14 16 36 19 44 5z m121 -1 c3 -5 0 -7 -8 -4 -24 9
-30 -14 -7 -26 11 -6 20 -17 20 -26 0 -19 -28 -30 -42 -16 -8 8 -5 9 11 5 28
-7 28 18 0 35 -16 11 -18 16 -9 28 14 16 26 18 35 4z m-232 -69 c10 -11 9 -13
-3 -9 -10 3 -15 19 -16 44 -1 29 -1 32 3 9 3 -16 10 -36 16 -44z m159 2 c7 -9
7 -13 0 -13 -12 0 -22 25 -21 48 1 13 3 12 6 -3 3 -11 10 -26 15 -32z m-613 4
c12 -15 12 -17 -3 -11 -9 3 -16 13 -16 22 0 8 1 13 3 11 1 -2 9 -12 16 -22z
m-381 -429 c16 -16 15 -103 0 -116 -24 -19 -60 -24 -88 -12 -24 10 -29 18 -32
58 -7 69 3 82 60 82 27 0 53 -5 60 -12z m242 -8 c14 -26 -3 -60 -30 -60 -13 0
-20 -7 -20 -20 0 -11 -4 -20 -10 -20 -6 0 -10 27 -10 60 0 60 0 60 30 60 19 0
33 -7 40 -20z m240 -39 c0 -53 -2 -59 -23 -63 -30 -6 -47 1 -47 18 0 19 -6 18
-30 -6 -17 -17 -24 -18 -41 -10 -25 14 -23 68 4 84 15 9 22 7 37 -11 21 -26
30 -29 30 -9 0 16 27 29 41 20 5 -3 9 4 9 15 0 12 5 21 10 21 6 0 10 -26 10
-59z m341 49 c14 -8 19 -21 19 -48 0 -48 -14 -62 -62 -62 l-38 0 0 60 0 60 31
0 c17 0 39 -5 50 -10z m279 0 c0 -5 -4 -10 -10 -10 -5 0 -10 5 -10 10 0 6 5
10 10 10 6 0 10 -4 10 -10z m40 -50 c0 -33 -4 -60 -10 -60 -6 0 -10 27 -10 60
0 33 4 60 10 60 6 0 10 -27 10 -60z m-460 35 c0 -8 6 -15 13 -16 10 0 10 -2 0
-6 -16 -6 -17 -63 -2 -63 5 0 8 -4 4 -10 -12 -19 -35 3 -35 35 0 29 -3 32 -29
33 -18 0 -32 -5 -35 -15 -8 -20 13 -46 31 -39 7 3 13 1 13 -3 0 -14 -23 -19
-42 -9 -22 11 -24 61 -4 77 8 7 25 9 40 5 20 -5 26 -2 26 10 0 9 5 16 10 16 6
0 10 -7 10 -15z m293 -28 c-18 -11 -16 -46 3 -54 12 -4 13 -8 3 -14 -19 -12
-29 -1 -29 31 0 16 -4 32 -10 35 -6 4 -6 12 2 24 10 17 12 17 28 2 13 -13 14
-18 3 -24z m-663 14 c3 -1 -3 -6 -12 -12 -11 -6 -18 -22 -18 -39 0 -17 -4 -30
-10 -30 -5 0 -10 19 -10 43 0 44 5 48 50 38z m218 -69 c8 -2 12 8 12 32 0 19
5 38 10 41 6 4 10 -11 10 -38 0 -38 -4 -46 -22 -50 -30 -8 -48 9 -48 48 0 46
14 53 20 9 3 -20 11 -39 18 -42z m390 66 c21 -21 13 -38 -18 -38 -23 0 -28 -4
-23 -16 4 -11 13 -14 32 -10 24 6 25 5 7 -8 -14 -11 -24 -12 -37 -5 -33 17
-20 89 16 89 6 0 16 -5 23 -12z m126 6 c11 -4 16 -19 16 -44 0 -30 -4 -39 -22
-43 -12 -3 -25 -4 -30 -1 -16 10 -8 43 12 49 11 3 20 11 20 16 0 6 -9 7 -20 4
-21 -7 -28 10 -7 18 6 3 13 6 14 6 1 1 8 -2 17 -5z m150 0 c23 -9 20 -23 -4
-17 -11 3 -20 1 -20 -5 0 -5 9 -12 20 -15 24 -6 27 -42 5 -51 -19 -7 -47 3
-40 15 3 4 12 6 20 2 22 -8 18 6 -7 27 -19 15 -20 20 -9 34 15 18 14 18 35 10z
m-94 -44 c0 -22 -4 -40 -10 -40 -5 0 -10 18 -10 40 0 22 5 40 10 40 6 0 10
-18 10 -40z m-1510 -493 c0 -29 5 -58 12 -65 7 -7 37 -13 68 -14 l55 -2 -50
-3 c-27 -2 -54 -8 -59 -14 -15 -14 -43 -11 -49 5 -3 7 -1 18 5 24 5 5 8 35 6
66 -1 31 0 56 5 56 4 0 7 -24 7 -53z m324 47 c23 -9 19 -24 -5 -21 -32 3 -34
-18 -4 -31 21 -10 26 -18 23 -40 -2 -22 -8 -27 -32 -27 -16 0 -31 6 -34 13 -3
9 3 11 21 7 37 -10 42 12 7 30 -34 17 -40 48 -12 64 21 13 17 12 36 5z m276
-64 c4 0 10 7 14 15 3 8 11 15 17 15 7 0 6 -8 -4 -24 -14 -21 -14 -25 1 -39 9
-9 13 -20 9 -23 -4 -4 -15 4 -26 17 l-20 24 -2 -25 c-1 -14 -5 2 -8 35 -4 33
-4 65 -1 70 3 6 6 -7 8 -27 2 -21 7 -38 12 -38z m-206 27 c8 -6 7 -10 -1 -14
-15 -6 -18 -53 -3 -53 6 0 10 -5 10 -11 0 -6 -8 -9 -17 -7 -22 4 -36 74 -20
103 8 16 11 17 15 5 3 -8 10 -19 16 -23z m-276 -29 l-3 -43 -45 0 -45 0 -3 43
-3 42 51 0 51 0 -3 -42z m2272 -3 c0 -7 -9 -20 -20 -30 -11 -10 -20 -13 -20
-8 0 6 7 16 15 23 14 12 14 15 0 30 -22 24 -18 36 5 15 11 -10 20 -23 20 -30z
m-1909 14 c8 -16 8 -28 0 -45 -18 -41 -71 -25 -71 21 0 44 50 61 71 24z m74
11 c3 -5 -3 -10 -15 -10 -11 0 -23 -7 -26 -15 -8 -21 14 -45 34 -38 13 5 14 3
6 -6 -20 -21 -49 -9 -52 22 -2 16 -1 35 2 43 6 16 42 19 51 4z m-447 -484 c3
-12 0 -16 -8 -11 -6 4 -20 -1 -31 -11 -15 -13 -22 -15 -31 -6 -9 9 -15 9 -27
0 -12 -9 -12 -7 1 7 13 14 20 16 31 7 11 -10 17 -9 27 2 6 9 9 20 5 27 -5 7
-1 10 11 7 10 -2 20 -12 22 -22z m228 3 c4 -7 -2 -9 -16 -7 -33 4 -36 -20 -5
-34 20 -9 25 -18 23 -37 -2 -21 -9 -27 -35 -29 -26 -3 -33 1 -33 14 0 14 3 14
16 4 12 -11 18 -10 31 3 15 15 14 17 -9 26 -32 12 -41 26 -33 51 7 22 49 28
61 9z m254 -19 c0 -34 6 -37 32 -13 10 9 18 11 18 6 0 -6 -7 -16 -15 -23 -14
-12 -14 -15 1 -31 10 -11 14 -22 10 -27 -4 -4 -13 1 -20 11 -17 22 -23 22 -29
0 -2 -10 -6 10 -8 45 -2 34 -1 62 4 62 4 0 7 -13 7 -30z m188 18 c16 -16 16
-80 0 -96 -32 -32 -98 0 -98 46 0 50 65 83 98 50z m209 0 c-16 -12 -16 -14 2
-25 13 -8 22 -9 26 -3 11 17 44 11 55 -11 17 -31 4 -69 -23 -69 -30 0 -47 18
-47 48 0 36 -24 21 -31 -19 l-6 -34 -2 38 c-1 30 -5 37 -21 37 -15 0 -20 -7
-20 -29 0 -16 6 -32 13 -34 6 -3 2 -6 -10 -6 -20 -1 -23 4 -24 37 -2 71 4 85
26 56 15 -19 16 -19 31 4 9 12 24 22 32 22 14 0 13 -2 -1 -12z m-599 -18 c7
-12 8 -20 2 -20 -15 0 -12 -57 3 -63 6 -3 2 -6 -9 -6 -18 -1 -23 6 -26 37 -6
69 6 90 30 52z m2002 -40 c0 -4 -10 -15 -22 -26 l-22 -19 17 27 c14 23 14 28
2 38 -8 7 -15 18 -15 24 1 12 40 -31 40 -44z m-1916 24 c19 -18 20 -28 6 -55
-13 -23 -55 -25 -64 -3 -21 55 20 96 58 58z m81 6 c3 -5 -3 -10 -14 -10 -25 0
-34 -14 -26 -41 5 -14 12 -18 26 -14 11 4 19 2 19 -5 0 -6 -12 -10 -27 -8 -22
2 -29 9 -31 31 -5 42 34 77 53 47z m268 -22 c-4 -28 11 -53 26 -44 6 4 11 23
11 42 0 21 4 33 10 29 6 -3 10 -24 10 -46 0 -38 -1 -39 -35 -39 -35 0 -35 0
-35 46 0 25 4 43 9 40 4 -3 7 -16 4 -28z m285 5 l10 -28 12 30 13 30 10 -27
c13 -32 27 -37 27 -9 0 11 5 23 10 26 13 8 13 -14 -1 -54 -13 -38 -24 -39 -37
-3 l-10 27 -7 -27 c-12 -47 -26 -36 -49 40 -11 32 10 27 22 -5z m-988 -43 c0
-43 -3 -50 -20 -50 -17 0 -20 7 -20 50 0 43 3 50 20 50 17 0 20 -7 20 -50z
m-50 -16 c0 -28 -3 -35 -17 -32 -12 2 -19 14 -21 36 -3 27 0 32 17 32 17 0 21
-6 21 -36z m-50 -14 c0 -21 -24 -28 -35 -10 -8 14 3 30 21 30 8 0 14 -9 14
-20z m-20 -380 c0 -5 26 -10 58 -12 54 -3 57 -4 54 -28 -6 -38 -21 -50 -66
-52 -35 -1 -33 -2 19 -8 l60 -7 -65 1 -65 1 -5 58 c-3 31 -2 57 2 57 5 0 8 -4
8 -10z m338 -18 c3 -9 -3 -11 -22 -6 -33 8 -34 -9 -1 -30 42 -28 22 -86 -25
-71 -29 9 -25 27 5 19 18 -4 25 -2 25 9 0 8 -11 22 -25 31 -28 18 -32 35 -13
54 16 16 50 12 56 -6z m271 -39 c7 10 18 17 24 17 5 0 3 -8 -6 -17 -13 -16
-14 -20 -1 -37 22 -31 16 -42 -10 -17 l-24 23 -5 -24 c-2 -12 -4 9 -4 47 0 53
1 60 6 31 5 -35 7 -38 20 -23z m101 -3 c0 -33 -4 -60 -10 -60 -6 0 -10 27 -10
60 0 33 4 60 10 60 6 0 10 -27 10 -60z m180 -6 c0 -41 -4 -63 -10 -59 -6 4
-10 29 -9 56 2 56 0 62 -21 48 -13 -8 -13 -10 0 -19 10 -6 11 -10 3 -10 -8 0
-13 -15 -13 -42 0 -54 -18 -38 -21 19 -3 48 13 73 47 73 23 0 24 -3 24 -66z
m-510 41 c0 -8 6 -15 13 -16 10 0 10 -2 0 -6 -16 -6 -17 -63 -1 -63 9 0 9 -3
0 -12 -23 -23 -37 20 -33 95 1 21 21 23 21 2z m1996 -70 c-10 -15 -20 -24 -24
-21 -3 4 1 14 10 23 15 15 15 18 1 42 l-16 26 23 -22 c22 -21 23 -22 6 -48z
m-1896 40 c29 -35 -21 -93 -55 -65 -15 13 -20 61 -8 73 12 12 50 7 63 -8z m80
4 c0 -6 -8 -8 -19 -4 -14 4 -21 0 -26 -14 -8 -28 3 -44 26 -38 23 6 26 -11 4
-19 -8 -4 -22 -1 -30 6 -15 13 -21 61 -8 73 10 11 53 8 53 -4z m238 -37 c2
-31 0 -42 -8 -37 -6 4 -9 17 -6 29 3 11 1 27 -3 35 -14 22 -31 3 -31 -35 0
-21 -4 -33 -10 -29 -5 3 -10 24 -10 46 0 39 1 40 33 37 30 -3 32 -5 35 -46z
m183 21 c12 -32 -22 -72 -48 -57 -19 12 -28 46 -19 70 9 23 57 13 67 -13z m34
0 l7 -28 10 28 c5 15 13 27 18 27 4 0 11 -12 15 -27 l7 -28 10 28 c14 41 28
33 16 -10 -14 -54 -25 -61 -38 -27 l-12 29 -12 -30 c-12 -28 -13 -29 -23 -10
-16 31 -24 75 -14 75 5 0 12 -12 16 -27z m-989 -64 c10 -17 -13 -36 -27 -22
-12 12 -4 33 11 33 5 0 12 -5 16 -11z m100 0 c10 -17 -13 -36 -27 -22 -12 12
-4 33 11 33 5 0 12 -5 16 -11z m-52 -388 c3 -5 15 -7 27 -4 16 5 20 2 18 -13
-2 -10 0 -25 5 -32 13 -22 -3 -82 -22 -82 -13 0 -14 2 -4 8 17 11 20 64 5 69
-8 3 -13 -4 -13 -19 0 -36 -23 -78 -42 -78 -12 0 -19 12 -24 45 -7 48 -21 66
-34 45 -10 -16 -2 -41 18 -57 14 -11 13 -13 -5 -13 -29 0 -40 56 -17 82 13 14
20 15 31 7 7 -7 16 -9 19 -6 9 9 -6 28 -17 22 -5 -4 -9 0 -9 7 0 10 -2 10 -9
-1 -5 -8 -11 -9 -15 -3 -8 14 11 25 29 18 8 -3 17 -1 20 4 8 13 32 13 39 1z
m250 3 c23 -9 19 -24 -5 -21 -32 3 -34 -18 -4 -31 21 -10 26 -18 23 -40 -2
-22 -8 -27 -32 -27 -16 0 -31 5 -33 12 -3 7 5 11 21 10 34 -3 36 15 3 31 -31
15 -36 46 -9 61 21 13 17 12 36 5z m209 -1 c4 -3 -1 -12 -11 -19 -16 -13 -16
-13 1 -14 11 0 27 10 37 23 10 12 22 18 26 14 5 -4 2 -12 -6 -18 -13 -8 -13
-10 0 -20 11 -8 12 -12 3 -16 -7 -2 -13 -20 -13 -39 0 -19 -4 -34 -10 -34 -5
0 -10 16 -10 35 0 28 -4 35 -20 35 -16 0 -20 -7 -21 -37 l-2 -38 -7 45 c-10
61 9 108 33 83z m-139 -36 c8 -6 7 -10 -1 -14 -15 -6 -18 -53 -3 -53 6 0 10
-5 10 -11 0 -6 -8 -9 -17 -7 -22 4 -36 74 -20 103 8 16 11 17 15 5 3 -8 10
-19 16 -23z m1996 -32 c0 -7 -9 -20 -20 -30 -11 -10 -20 -13 -20 -8 0 6 7 16
15 23 14 12 14 15 0 30 -22 24 -18 36 5 15 11 -10 20 -23 20 -30z m-1922 23
c7 -7 12 -26 12 -44 0 -30 -2 -32 -32 -31 -26 2 -33 6 -33 22 0 13 8 21 23 23
13 2 21 9 19 15 -2 7 -14 11 -27 9 -14 -2 -20 0 -16 7 9 15 39 14 54 -1z"/>
<path d="M910 8684 c0 -33 33 -30 38 4 3 17 -2 22 -17 22 -16 0 -21 -6 -21
-26z"/>
<path d="M1224 8695 c-7 -18 3 -35 22 -35 8 0 14 10 14 25 0 27 -27 35 -36 10z"/>
<path d="M276 8722 c-8 -10 -14 -33 -13 -52 l2 -35 56 -3 c46 -2 58 0 63 14 4
10 2 21 -5 24 -8 6 -8 9 0 11 7 3 9 12 6 22 -4 9 -11 14 -16 11 -5 -3 -9 1 -9
9 0 21 -65 20 -84 -1z m53 -34 c3 1 6 -5 6 -13 0 -28 -18 -20 -38 15 l-19 35
22 -20 c12 -11 25 -19 29 -17z"/>
<path d="M567 8743 c-4 -3 -7 -24 -7 -45 0 -33 3 -38 23 -38 44 0 62 43 31 74
-16 17 -36 21 -47 9z"/>
<path d="M681 8671 c-8 -6 -9 -11 -3 -15 6 -3 14 -1 17 5 9 14 2 20 -14 10z"/>
<path d="M993 8694 c-3 -8 1 -22 9 -30 13 -13 16 -13 27 0 7 9 11 23 7 31 -7
20 -35 19 -43 -1z"/>
<path d="M1085 8671 c-6 -11 9 -23 19 -14 9 9 7 23 -3 23 -6 0 -12 -4 -16 -9z"/>
<path d="M312 8218 c-15 -15 -16 -45 -2 -53 6 -3 11 -18 11 -33 1 -16 5 -6 10
22 9 56 1 84 -19 64z"/>
<path d="M342 8136 c1 -27 6 -36 19 -36 24 0 22 63 -3 68 -14 3 -17 -4 -16
-32z"/>
<path d="M270 8135 c0 -8 0 -18 0 -22 0 -19 33 -6 36 15 3 16 -1 22 -16 22
-11 0 -20 -7 -20 -15z"/>
<path d="M305 7719 c-15 -6 -11 -8 18 -8 20 -1 37 1 37 3 0 9 -37 12 -55 5z"/>
<path d="M260 7660 c0 -22 4 -40 9 -40 5 0 16 -3 25 -6 13 -5 16 1 16 34 0 27
-5 42 -16 46 -29 11 -34 6 -34 -34z"/>
<path d="M348 7693 c-14 -3 -18 -15 -18 -49 0 -43 0 -43 25 -32 20 9 25 18 25
50 0 21 -3 37 -7 37 -5 -1 -16 -3 -25 -6z"/>
<path d="M722 7658 c2 -13 8 -23 13 -23 6 0 11 10 13 23 2 15 -2 22 -13 22
-11 0 -15 -7 -13 -22z"/>
<path d="M808 7668 c-7 -18 2 -39 13 -32 12 7 12 44 0 44 -5 0 -11 -6 -13 -12z"/>
<path d="M570 7701 c0 -12 6 -21 16 -21 9 0 14 7 12 17 -5 25 -28 28 -28 4z"/>
<path d="M1060 7655 c0 -21 4 -24 30 -22 36 2 36 4 8 28 -31 25 -38 24 -38 -6z"/>
<path d="M1170 7185 c0 -22 4 -26 23 -23 14 2 22 10 22 23 0 13 -8 21 -22 23
-19 3 -23 -1 -23 -23z"/>
<path d="M580 6680 c-8 -5 -11 -12 -8 -16 10 -9 38 3 38 16 0 12 -10 13 -30 0z"/>
<path d="M636 6675 c4 -8 15 -15 25 -15 23 0 25 16 3 24 -25 10 -34 7 -28 -9z"/>
<path d="M630 6608 c0 -50 0 -50 23 -35 14 9 22 25 22 42 0 20 -7 30 -22 36
-22 8 -23 6 -23 -43z"/>
<path d="M570 6616 c0 -32 13 -46 41 -46 5 0 9 18 9 40 0 36 -2 40 -25 40 -22
0 -25 -4 -25 -34z"/>
<path d="M870 6660 c0 -15 5 -20 18 -18 9 2 17 10 17 18 0 8 -8 16 -17 18 -13
2 -18 -3 -18 -18z"/>
<path d="M1017 6635 c-9 -22 3 -46 22 -43 10 2 16 13 16 28 0 28 -29 40 -38
15z"/>
<path d="M1104 6636 c-8 -22 3 -49 19 -43 6 2 12 14 12 27 0 27 -22 39 -31 16z"/>
<path d="M1440 6640 c0 -49 22 -63 53 -32 18 18 19 25 9 47 -8 17 -19 25 -37
25 -23 0 -25 -4 -25 -40z"/>
<path d="M1560 6640 c0 -5 7 -10 15 -10 8 0 15 5 15 10 0 6 -7 10 -15 10 -8 0
-15 -4 -15 -10z"/>
<path d="M1695 6600 c-3 -5 1 -10 9 -10 9 0 16 5 16 10 0 6 -4 10 -9 10 -6 0
-13 -4 -16 -10z"/>
<path d="M260 6045 c0 -8 5 -15 10 -15 6 0 10 7 10 15 0 8 -4 15 -10 15 -5 0
-10 -7 -10 -15z"/>
<path d="M302 6108 c3 -30 6 -33 38 -33 32 0 35 3 38 33 3 31 3 32 -38 32 -41
0 -41 -1 -38 -32z"/>
<path d="M700 6095 c0 -20 4 -26 18 -23 9 2 17 12 17 23 0 11 -8 21 -17 23
-14 3 -18 -3 -18 -23z"/>
<path d="M985 5634 c-19 -20 -19 -48 1 -68 21 -22 31 -20 49 8 27 41 -16 93
-50 60z"/>
<path d="M1294 5596 c-8 -22 3 -49 19 -43 6 2 12 14 12 27 0 27 -22 39 -31 16z"/>
<path d="M702 5583 c4 -36 33 -39 33 -3 0 16 -6 26 -18 28 -15 3 -18 -2 -15
-25z"/>
<path d="M360 5560 c0 -22 5 -40 10 -40 6 0 10 18 10 40 0 22 -4 40 -10 40 -5
0 -10 -18 -10 -40z"/>
<path d="M310 5545 c0 -14 5 -25 10 -25 6 0 10 11 10 25 0 14 -4 25 -10 25 -5
0 -10 -11 -10 -25z"/>
<path d="M274 5115 c-12 -29 4 -45 45 -45 38 0 51 11 51 46 0 20 -88 20 -96
-1z"/>
<path d="M707 5094 c-4 -4 -7 -18 -7 -31 0 -18 5 -24 18 -21 10 2 17 12 17 27
0 24 -15 37 -28 25z"/>
<path d="M1201 5086 c-14 -16 -4 -46 14 -46 19 0 27 17 20 40 -7 23 -18 25
-34 6z"/>
<path d="M270 5009 c0 -5 5 -7 10 -4 6 3 10 8 10 11 0 2 -4 4 -10 4 -5 0 -10
-5 -10 -11z"/>
<path d="M370 5010 c0 -5 5 -10 10 -10 6 0 10 5 10 10 0 6 -4 10 -10 10 -5 0
-10 -4 -10 -10z"/>
<path d="M310 4622 c0 -14 39 -46 47 -39 3 4 -2 16 -12 27 -19 21 -35 26 -35
12z"/>
<path d="M305 4571 c-8 -14 5 -81 16 -81 5 0 9 9 9 19 0 11 6 21 13 24 9 3 9
9 1 23 -13 22 -30 29 -39 15z"/>
<path d="M705 4540 c-3 -5 1 -10 9 -10 9 0 16 5 16 10 0 6 -4 10 -9 10 -6 0
-13 -4 -16 -10z"/>
<path d="M3364 8506 c-3 -9 -4 -23 0 -31 4 -11 -2 -15 -24 -15 -33 0 -60 -31
-60 -70 0 -41 15 -54 65 -56 l45 -2 0 89 c0 82 -12 121 -26 85z m-6 -108 c-4
-51 -31 -65 -49 -25 -14 31 3 67 32 67 18 0 20 -5 17 -42z"/>
<path d="M3494 8506 c-3 -9 -4 -23 0 -31 4 -11 -2 -15 -24 -15 -33 0 -60 -31
-60 -70 0 -41 15 -54 65 -56 l45 -2 0 89 c0 82 -12 121 -26 85z m-2 -101 c4
-38 -12 -61 -35 -52 -33 13 -23 87 12 87 14 0 20 -9 23 -35z"/>
<path d="M4040 8490 c0 -26 -3 -30 -29 -30 -36 0 -53 -20 -53 -65 0 -49 16
-64 63 -62 l39 1 0 93 c0 55 -4 93 -10 93 -5 0 -10 -13 -10 -30z m-2 -86 c3
-34 -18 -60 -43 -50 -9 3 -15 18 -15 39 0 40 7 49 35 45 14 -2 21 -12 23 -34z"/>
<path d="M3151 8429 c-17 -44 -31 -85 -31 -90 0 -19 21 -8 30 16 8 20 16 25
45 25 29 0 37 -5 45 -25 9 -23 30 -35 30 -18 0 24 -65 173 -75 173 -7 0 -27
-36 -44 -81z m69 -16 c0 -7 -11 -13 -25 -13 -28 0 -30 8 -13 45 l12 26 13 -23
c7 -13 12 -29 13 -35z"/>
<path d="M3600 8419 c0 -68 3 -90 13 -86 6 2 12 17 12 33 1 25 5 30 30 32 41
5 55 19 55 56 0 43 -16 56 -67 56 l-43 0 0 -91z m87 55 c9 -24 -10 -49 -37
-49 -18 0 -23 6 -25 33 -2 29 0 32 26 32 18 0 32 -6 36 -16z"/>
<path d="M4340 8481 c0 -11 -6 -22 -12 -25 -10 -5 -10 -7 0 -12 7 -3 12 -25
12 -55 0 -53 14 -68 48 -53 15 7 14 8 -5 11 -20 4 -23 11 -23 48 0 37 3 44 23
48 l22 4 -22 8 c-13 4 -23 16 -23 26 0 11 -4 19 -10 19 -5 0 -10 -9 -10 -19z"/>
<path d="M3740 8393 c0 -73 17 -86 22 -15 2 38 7 49 26 57 32 14 27 25 -13 23
l-35 -1 0 -64z"/>
<path d="M3840 8445 c-19 -22 -15 -87 6 -102 43 -31 94 0 94 58 0 49 -70 80
-100 44z m71 -26 c8 -16 8 -28 0 -45 -12 -27 -46 -32 -55 -8 -8 21 -8 59 1 67
13 14 43 6 54 -14z"/>
<path d="M4090 8406 c0 -62 11 -75 63 -73 l37 1 0 63 c0 35 -4 63 -10 63 -5 0
-10 -22 -10 -49 0 -41 -4 -51 -20 -56 -31 -10 -40 2 -40 56 0 27 -4 49 -10 49
-5 0 -10 -24 -10 -54z"/>
<path d="M4232 8448 c-6 -6 -12 -31 -12 -55 0 -48 24 -69 66 -59 32 8 31 25
-2 23 -33 -2 -49 21 -40 58 6 24 10 27 37 21 22 -4 29 -2 27 7 -6 17 -60 21
-76 5z"/>
<path d="M4420 8445 c-17 -20 -7 -41 27 -57 34 -16 28 -34 -10 -31 -39 2 -29
-21 11 -25 54 -5 69 61 16 74 -32 8 -31 34 2 34 14 0 23 4 19 10 -9 15 -51 12
-65 -5z"/>
<path d="M7438 7700 c3 -153 5 -170 20 -169 10 0 12 3 5 6 -10 3 -13 46 -13
164 l0 159 155 0 155 0 3 -172 3 -173 2 178 2 177 -167 0 -168 0 3 -170z"/>
<path d="M3260 7761 c0 -6 5 -13 10 -16 6 -3 10 1 10 9 0 9 -4 16 -10 16 -5 0
-10 -4 -10 -9z"/>
<path d="M3180 7705 c0 -30 5 -55 10 -55 6 0 10 11 10 25 0 18 5 25 20 25 11
0 20 5 20 10 0 6 -8 10 -17 8 -10 -2 -19 4 -21 14 -2 12 5 18 25 21 23 3 22 4
-9 6 l-38 1 0 -55z"/>
<path d="M3510 7705 c0 -62 17 -75 22 -17 l3 37 23 -37 c13 -21 28 -38 33 -38
5 0 9 25 9 55 0 30 -4 55 -10 55 -5 0 -10 -15 -10 -32 l-1 -33 -27 33 c-15 18
-30 32 -34 32 -5 0 -8 -25 -8 -55z"/>
<path d="M3937 7753 c-12 -11 -8 -23 8 -23 8 0 15 7 15 15 0 16 -12 20 -23 8z"/>
<path d="M5227 7743 c-15 -14 -6 -42 20 -61 32 -23 23 -47 -14 -37 -16 4 -22
2 -18 -5 11 -17 54 -11 65 10 11 20 8 24 -35 55 -17 12 -18 16 -6 24 8 5 21 7
29 3 10 -3 13 -1 8 6 -8 13 -39 16 -49 5z"/>
<path d="M5603 7690 c0 -36 2 -50 4 -32 2 17 2 47 0 65 -2 17 -4 3 -4 -33z"/>
<path d="M5750 7690 l0 -60 38 1 c36 1 36 2 7 8 -40 8 -47 41 -9 41 15 0 24 3
20 7 -4 4 -15 8 -24 8 -9 0 -18 8 -20 18 -3 12 3 17 22 17 14 0 28 5 31 10 4
6 -8 10 -29 10 l-36 0 0 -60z"/>
<path d="M7555 7740 c-7 -11 40 -80 54 -80 9 0 61 64 61 75 0 5 -34 -33 -57
-65 -4 -5 -52 51 -53 62 0 4 21 9 48 11 l47 3 -47 2 c-26 1 -50 -3 -53 -8z"/>
<path d="M5929 7725 c-2 -10 -2 -36 -1 -57 3 -32 8 -38 26 -37 16 1 17 2 4 6
-21 5 -26 63 -5 63 8 0 9 3 1 8 -6 4 -13 14 -16 22 -4 11 -6 10 -9 -5z"/>
<path d="M3260 7690 c0 -22 5 -40 10 -40 6 0 10 18 10 40 0 22 -4 40 -10 40
-5 0 -10 -18 -10 -40z"/>
<path d="M3300 7690 c0 -22 5 -40 10 -40 6 0 10 12 10 26 0 15 8 33 18 40 15
12 14 13 -10 14 -26 0 -28 -3 -28 -40z"/>
<path d="M3360 7689 c0 -21 5 -39 10 -39 6 0 10 16 10 35 0 19 5 35 10 35 6 0
10 -16 10 -35 0 -44 18 -46 22 -2 4 41 21 38 29 -5 6 -32 6 -32 8 9 l1 41 -50
0 -50 1 0 -40z"/>
<path d="M3620 7719 c0 -6 7 -9 15 -6 8 4 17 2 20 -3 3 -5 -4 -11 -15 -15 -11
-3 -20 -15 -20 -25 0 -14 7 -18 30 -18 24 1 30 5 30 24 0 12 -3 29 -6 38 -7
18 -54 22 -54 5z m40 -43 c0 -11 -19 -15 -25 -6 -3 5 1 10 9 10 9 0 16 -2 16
-4z"/>
<path d="M3690 7696 c0 -45 18 -56 22 -14 2 18 8 33 13 33 6 0 11 -15 13 -33
4 -39 22 -33 22 9 0 16 5 29 10 29 6 0 10 -16 10 -35 0 -19 5 -35 11 -35 6 0
9 16 7 38 l-3 37 -52 3 -53 3 0 -35z"/>
<path d="M3814 7706 c-4 -16 -1 -32 6 -41 14 -17 46 -20 55 -5 4 6 -5 10 -19
10 -14 0 -26 5 -26 10 0 6 12 10 26 10 36 0 29 34 -8 38 -22 3 -29 -2 -34 -22z
m46 4 c0 -5 -7 -10 -16 -10 -8 0 -12 5 -9 10 3 6 10 10 16 10 5 0 9 -4 9 -10z"/>
<path d="M5314 7704 c-18 -15 -18 -15 3 -9 31 8 39 -13 9 -25 -37 -14 -34 -40
4 -40 27 0 30 3 30 34 0 44 -20 61 -46 40z m31 -54 c-3 -5 -13 -10 -21 -10 -8
0 -14 5 -14 10 0 6 9 10 21 10 11 0 17 -4 14 -10z"/>
<path d="M5398 7712 c-14 -2 -18 -14 -18 -43 0 -21 5 -39 10 -39 6 0 10 16 10
36 0 46 23 41 29 -7 l4 -34 6 34 c8 48 31 53 31 7 0 -20 5 -36 10 -36 15 0 12
66 -3 78 -8 7 -18 7 -27 2 -8 -5 -19 -5 -25 -1 -5 4 -18 6 -27 3z"/>
<path d="M5528 7713 c-15 -4 -18 -15 -17 -61 1 -31 3 -49 6 -39 3 10 14 17 28
17 23 0 35 17 35 50 0 22 -27 38 -52 33z m32 -43 c0 -20 -5 -30 -15 -30 -18 0
-30 24 -21 45 10 28 36 17 36 -15z"/>
<path d="M5646 7704 c-31 -30 -16 -74 25 -74 16 0 29 4 29 9 0 4 -11 6 -25 3
-18 -3 -25 0 -25 12 0 10 9 16 25 16 30 0 34 25 6 40 -15 7 -23 6 -35 -6z m39
-14 c3 -5 -3 -10 -14 -10 -12 0 -21 5 -21 10 0 6 6 10 14 10 8 0 18 -4 21 -10z"/>
<path d="M5858 7712 c-14 -3 -18 -13 -17 -45 l2 -42 6 35 c4 22 12 35 21 35 9
0 17 -13 21 -35 l6 -35 2 41 c1 43 -9 54 -41 46z"/>
<path d="M5996 7707 c-12 -9 -17 -23 -14 -42 2 -24 8 -31 31 -33 15 -2 27 1
27 6 0 5 -10 8 -21 8 -12 -1 -24 5 -26 12 -3 8 6 12 26 12 34 0 39 11 15 34
-19 19 -16 19 -38 3z m34 -17 c0 -5 -9 -10 -21 -10 -11 0 -17 5 -14 10 3 6 13
10 21 10 8 0 14 -4 14 -10z"/>
<path d="M6148 7712 c-15 -3 -18 -14 -17 -60 1 -31 3 -49 6 -39 2 9 13 17 23
17 23 0 43 34 35 59 -7 22 -22 29 -47 23z m30 -39 c-3 -30 -25 -42 -34 -19 -9
22 2 46 21 46 12 0 15 -8 13 -27z"/>
<path d="M6319 7704 c-11 -14 -10 -19 9 -34 28 -23 28 -28 0 -33 -20 -4 -19
-4 5 -6 21 -1 27 3 27 19 0 11 -7 23 -15 26 -20 8 -19 24 1 24 8 0 12 5 9 10
-9 14 -21 12 -36 -6z"/>
<path d="M6396 7707 c-12 -9 -17 -23 -14 -42 2 -24 8 -31 31 -33 15 -2 27 1
27 6 0 5 -10 8 -21 8 -12 -1 -24 5 -26 12 -3 8 6 12 26 12 34 0 39 11 15 34
-19 19 -16 19 -38 3z m34 -17 c0 -5 -9 -10 -21 -10 -11 0 -17 5 -14 10 3 6 13
10 21 10 8 0 14 -4 14 -10z"/>
<path d="M6060 7670 c0 -22 5 -40 10 -40 6 0 10 13 10 30 0 17 7 33 18 39 14
9 13 10 -10 11 -26 0 -28 -3 -28 -40z"/>
<path d="M6210 7670 c0 -22 5 -40 10 -40 6 0 10 13 10 30 0 17 7 33 18 39 14
9 13 10 -10 11 -26 0 -28 -3 -28 -40z"/>
<path d="M6283 7670 c0 -25 2 -35 4 -22 2 12 2 32 0 45 -2 12 -4 2 -4 -23z"/>
<path d="M7608 7533 c7 -3 16 -2 19 1 4 3 -2 6 -13 5 -11 0 -14 -3 -6 -6z"/>
<path d="M7688 7533 c7 -3 16 -2 19 1 4 3 -2 6 -13 5 -11 0 -14 -3 -6 -6z"/>
<path d="M3180 7116 c0 -55 16 -86 22 -44 2 15 11 24 24 26 48 7 33 72 -16 72
-30 0 -30 -1 -30 -54z m55 14 c0 -8 -8 -16 -17 -18 -13 -2 -18 3 -18 18 0 15
5 20 18 18 9 -2 17 -10 17 -18z"/>
<path d="M3460 7149 c0 -11 -4 -17 -10 -14 -18 11 -40 -15 -40 -46 0 -16 5
-29 10 -30 55 -6 55 -6 57 54 2 32 -2 57 -7 57 -6 0 -10 -9 -10 -21z m-2 -51
c-5 -32 -28 -35 -28 -4 0 17 5 26 16 26 10 0 14 -7 12 -22z"/>
<path d="M3730 7109 c0 -37 4 -58 10 -54 6 3 10 20 10 37 l0 31 35 -39 34 -39
1 63 c0 67 -17 86 -22 25 l-3 -38 -23 38 c-13 20 -28 37 -33 37 -5 0 -9 -27
-9 -61z"/>
<path d="M4156 7163 c-12 -12 -6 -33 9 -33 8 0 15 6 15 14 0 17 -14 28 -24 19z"/>
<path d="M3649 7143 c-4 -68 11 -107 33 -85 9 9 9 12 0 12 -7 0 -12 11 -12 25
0 14 5 25 10 25 6 0 5 8 -2 20 -16 25 -28 26 -29 3z"/>
<path d="M3270 7092 c0 -26 4 -41 10 -37 6 3 10 17 10 31 0 14 7 27 15 30 24
9 17 22 -10 20 -23 -1 -25 -5 -25 -44z"/>
<path d="M3336 7124 c-9 -8 -16 -22 -16 -29 0 -15 27 -45 40 -45 13 0 40 30
40 45 0 15 -27 45 -40 45 -5 0 -16 -7 -24 -16z m41 -20 c8 -21 -13 -42 -28
-27 -13 13 -5 43 11 43 6 0 13 -7 17 -16z"/>
<path d="M3498 7134 c-13 -12 -9 -62 5 -71 6 -4 22 -8 35 -8 19 -1 22 4 22 36
0 21 -4 41 -10 44 -6 4 -10 -8 -10 -29 0 -50 -28 -49 -32 0 -2 20 -6 32 -10
28z"/>
<path d="M3586 7124 c-20 -19 -20 -35 -2 -59 8 -11 19 -16 30 -12 21 8 21 25
-1 23 -26 -2 -29 34 -4 41 11 3 18 9 15 14 -8 13 -21 11 -38 -7z"/>
<path d="M3853 7133 c-21 -8 -15 -22 7 -16 11 3 20 1 20 -5 0 -5 -9 -12 -20
-15 -20 -5 -27 -31 -12 -41 5 -3 18 -2 30 1 25 6 31 50 10 71 -13 13 -16 13
-35 5z m27 -53 c0 -5 -7 -10 -16 -10 -8 0 -12 5 -9 10 3 6 10 10 16 10 5 0 9
-4 9 -10z"/>
<path d="M3919 7133 c-2 -7 -1 -73 1 -80 2 -5 5 7 9 26 9 48 31 53 31 6 0 -21
4 -34 10 -30 6 3 10 19 10 36 0 16 5 29 10 29 6 0 10 -16 10 -36 0 -21 4 -33
10 -29 14 9 12 62 -2 72 -12 7 -87 13 -89 6z"/>
<path d="M4046 7124 c-9 -8 -16 -22 -16 -29 0 -14 26 -45 38 -45 4 0 14 5 22
10 12 8 11 10 -7 10 -12 0 -25 5 -28 10 -4 6 5 10 19 10 28 0 34 18 14 38 -16
16 -23 15 -42 -4z m34 -14 c0 -5 -4 -10 -9 -10 -6 0 -13 5 -16 10 -3 6 1 10 9
10 9 0 16 -4 16 -10z"/>
<path d="M3460 6561 c0 -13 -8 -21 -22 -23 -19 -2 -23 -9 -23 -38 0 -32 3 -35
32 -38 l32 -3 0 55 c-1 31 -5 59 -10 62 -5 3 -9 -4 -9 -15z m-2 -63 c-5 -32
-28 -35 -28 -4 0 17 5 26 16 26 10 0 14 -7 12 -22z"/>
<path d="M3955 6570 c-3 -5 -3 -14 0 -20 3 -5 -3 -10 -15 -10 -23 0 -40 -33
-32 -62 3 -12 14 -18 33 -18 29 0 29 1 29 60 0 59 -3 69 -15 50z m0 -60 c10
-16 -16 -43 -28 -31 -11 11 -2 41 12 41 5 0 13 -5 16 -10z"/>
<path d="M3180 6515 c0 -30 5 -55 10 -55 6 0 10 9 10 20 0 13 7 20 20 20 24 0
43 39 28 58 -6 6 -23 12 -39 12 -28 0 -29 -1 -29 -55z m53 28 c9 -9 -13 -34
-24 -27 -14 8 -11 34 4 34 8 0 17 -3 20 -7z"/>
<path d="M3742 6558 c-7 -7 -12 -26 -12 -43 0 -17 5 -36 12 -43 15 -15 55 -16
64 0 5 7 0 9 -14 6 -29 -8 -60 27 -46 50 6 9 23 18 38 20 14 2 26 8 26 13 0
13 -54 11 -68 -3z"/>
<path d="M4116 6563 c-11 -11 -6 -23 9 -23 8 0 15 4 15 9 0 13 -16 22 -24 14z"/>
<path d="M3648 6548 c-3 -7 -3 -30 0 -50 3 -31 8 -38 26 -37 11 0 15 3 9 6
-17 6 -17 50 -1 55 9 3 8 9 -4 21 -20 20 -24 21 -30 5z"/>
<path d="M3270 6499 c0 -22 5 -39 10 -39 6 0 10 12 10 26 0 15 8 32 17 39 15
11 14 13 -10 13 -25 0 -27 -4 -27 -39z"/>
<path d="M3330 6520 c-14 -26 3 -60 30 -60 27 0 44 34 30 60 -6 11 -19 20 -30
20 -11 0 -24 -9 -30 -20z m47 -16 c8 -21 -13 -42 -28 -27 -13 13 -5 43 11 43
6 0 13 -7 17 -16z"/>
<path d="M3492 6503 c3 -35 6 -38 36 -41 31 -3 32 -2 32 37 0 49 -17 55 -22 9
-2 -18 -7 -33 -13 -33 -5 0 -11 15 -13 33 -2 17 -8 32 -13 32 -6 0 -9 -17 -7
-37z"/>
<path d="M3580 6525 c-20 -24 -4 -65 25 -65 14 0 25 4 25 9 0 5 -8 8 -17 7
-12 0 -19 7 -21 22 -3 17 2 22 17 22 12 0 21 5 21 10 0 15 -36 12 -50 -5z"/>
<path d="M3831 6526 c-8 -10 -11 -26 -7 -42 5 -20 12 -25 34 -22 24 3 27 7 27
38 0 28 -4 36 -21 38 -11 2 -26 -4 -33 -12z m46 -21 c5 -16 -14 -38 -26 -31
-18 12 -13 48 6 44 9 -2 18 -7 20 -13z"/>
<path d="M3994 6526 c-12 -32 0 -61 29 -64 15 -2 27 2 27 8 0 7 -8 9 -20 5
-14 -5 -20 -2 -20 10 0 9 4 14 8 11 14 -9 35 12 29 28 -8 20 -46 21 -53 2z
m43 -12 c-3 -3 -12 -4 -19 -1 -8 3 -5 6 6 6 11 1 17 -2 13 -5z"/>
<path d="M13560 6299 c0 -52 24 -48 28 4 2 28 -1 37 -12 37 -12 0 -16 -11 -16
-41z"/>
<path d="M13630 6330 c-23 -14 -5 -22 22 -9 19 8 31 8 48 -1 12 -6 25 -9 28
-5 10 10 -21 25 -53 25 -16 0 -37 -4 -45 -10z"/>
<path d="M15883 6327 c6 -15 3 -17 -15 -11 -19 6 -21 5 -11 -8 9 -11 10 -17 1
-26 -8 -8 -5 -9 11 -5 18 4 20 2 14 -13 -6 -17 -5 -17 11 -5 11 10 14 17 7 24
-7 7 -7 15 -1 22 7 9 5 17 -7 26 -15 12 -16 12 -10 -4z"/>
<path d="M13524 6316 c-8 -21 -1 -49 14 -54 8 -2 12 8 12 32 0 36 -16 49 -26
22z"/>
<path d="M14760 6310 c0 -14 7 -20 21 -20 12 0 17 -4 14 -11 -4 -6 -14 -8 -22
-5 -8 3 -11 1 -8 -4 11 -18 35 -10 41 14 7 31 -1 46 -27 46 -12 0 -19 -7 -19
-20z m30 0 c0 -5 -4 -10 -10 -10 -5 0 -10 5 -10 10 0 6 5 10 10 10 6 0 10 -4
10 -10z"/>
<path d="M14866 6305 c-16 -24 -16 -26 6 -34 29 -11 38 -3 31 32 -7 34 -16 34
-37 2z m16 -17 c-7 -7 -12 -8 -12 -2 0 14 12 26 19 19 2 -3 -1 -11 -7 -17z"/>
<path d="M14925 6320 c-3 -5 -2 -10 4 -10 5 0 12 -12 14 -27 3 -23 4 -21 6 10
1 35 -11 49 -24 27z"/>
<path d="M15006 6299 c-8 -19 -12 -36 -9 -39 3 -3 8 1 10 8 3 6 11 12 18 12 7
0 16 -6 19 -12 3 -7 4 1 0 17 -9 47 -22 52 -38 14z"/>
<path d="M15071 6293 c1 -33 2 -35 8 -13 l7 25 7 -25 7 -25 14 25 14 24 5 -24
c3 -18 5 -15 6 13 1 43 -13 49 -27 10 l-10 -28 -7 28 c-10 39 -25 33 -24 -10z"/>
<path d="M15977 6323 c-2 -5 0 -21 4 -38 7 -29 7 -29 8 8 1 35 -3 46 -12 30z"/>
<path d="M16025 6320 c-4 -6 -4 -14 -1 -17 3 -4 6 -1 6 5 0 7 5 12 10 12 6 0
10 -12 10 -26 0 -19 -4 -25 -15 -20 -8 3 -15 1 -15 -4 0 -6 9 -10 21 -10 17 0
20 5 17 32 -3 32 -21 48 -33 28z"/>
<path d="M16084 6316 c-9 -24 0 -51 19 -54 9 -2 17 1 17 7 0 6 -7 8 -15 5 -11
-5 -15 1 -15 21 0 20 4 26 16 21 8 -3 12 -2 9 4 -9 15 -25 12 -31 -4z"/>
<path d="M16155 6316 c19 -14 19 -15 1 -35 -11 -12 -16 -21 -11 -21 4 0 14 8
21 18 13 16 13 16 14 0 0 -20 15 -24 25 -8 3 6 -1 13 -9 16 -13 5 -13 10 -4
27 10 19 9 20 -4 9 -11 -9 -18 -10 -23 -2 -3 5 -11 10 -18 10 -6 0 -2 -6 8
-14z"/>
<path d="M16250 6290 l0 -31 83 3 c81 3 82 3 85 31 l3 27 -85 0 -86 0 0 -30z"/>
<path d="M13490 6285 c0 -14 5 -25 10 -25 6 0 10 11 10 25 0 14 -4 25 -10 25
-5 0 -10 -11 -10 -25z"/>
<path d="M13640 6302 c0 -4 16 -8 35 -8 19 0 35 4 35 8 0 4 -16 8 -35 8 -19 0
-35 -4 -35 -8z"/>
<path d="M13450 6280 c0 -11 5 -20 10 -20 6 0 10 9 10 20 0 11 -4 20 -10 20
-5 0 -10 -9 -10 -20z"/>
<path d="M13666 6281 c-4 -5 -2 -12 3 -15 5 -4 12 -2 15 3 4 5 2 12 -3 15 -5
4 -12 2 -15 -3z"/>
<path d="M13575 6100 l-29 -30 29 -30 c16 -16 33 -30 39 -30 5 0 -3 14 -19 30
l-29 30 29 30 c16 17 24 30 19 30 -6 0 -23 -13 -39 -30z"/>
<path d="M14537 6065 c-9 -25 -12 -45 -6 -45 5 0 9 5 9 10 0 14 38 12 43 -2 2
-7 7 -10 11 -7 8 8 -18 82 -31 86 -6 2 -18 -17 -26 -42z m33 5 c0 -5 -5 -10
-11 -10 -5 0 -7 5 -4 10 3 6 8 10 11 10 2 0 4 -4 4 -10z"/>
<path d="M14660 6097 c0 -8 -10 -13 -22 -13 -19 1 -23 -4 -23 -29 0 -26 4 -30
28 -31 25 -1 27 1 27 42 0 24 -2 44 -5 44 -3 0 -5 -6 -5 -13z m0 -41 c0 -8 -5
-18 -11 -22 -14 -8 -33 11 -25 25 10 16 36 13 36 -3z"/>
<path d="M14740 6096 c0 -9 -7 -12 -20 -9 -14 4 -21 -1 -25 -20 -9 -35 0 -47
36 -47 28 0 29 2 29 45 0 25 -4 45 -10 45 -5 0 -10 -6 -10 -14z m-2 -43 c-5
-25 -28 -28 -28 -4 0 12 6 21 16 21 9 0 14 -7 12 -17z"/>
<path d="M14810 6065 c0 -25 5 -45 10 -45 6 0 10 7 10 15 0 8 9 15 19 15 23 0
35 28 20 46 -6 8 -22 14 -35 14 -22 0 -24 -4 -24 -45z m48 13 c-6 -18 -28 -21
-28 -4 0 9 7 16 16 16 9 0 14 -5 12 -12z"/>
<path d="M15070 6097 c0 -8 -10 -13 -22 -13 -19 1 -23 -4 -23 -29 0 -25 4 -30
28 -33 26 -3 27 -2 27 42 0 25 -2 46 -5 46 -3 0 -5 -6 -5 -13z m-4 -38 c10
-17 -13 -36 -27 -22 -12 12 -4 33 11 33 5 0 12 -5 16 -11z"/>
<path d="M15257 6093 c-9 -16 6 -73 19 -73 10 0 11 6 4 24 -6 17 -5 26 2 28 6
2 8 10 4 16 -8 14 -23 16 -29 5z"/>
<path d="M14890 6054 c0 -19 5 -34 10 -34 6 0 10 11 10 25 0 14 5 25 10 25 19
0 10 16 -10 17 -16 1 -20 -4 -20 -33z"/>
<path d="M14950 6075 c-17 -20 -8 -49 16 -53 30 -4 48 21 34 47 -13 25 -33 27
-50 6z m38 -22 c-5 -25 -28 -28 -28 -4 0 12 6 21 16 21 9 0 14 -7 12 -17z"/>
<path d="M15102 6058 c2 -28 8 -34 31 -36 25 -3 27 -1 26 35 -1 35 -2 36 -8 9
-9 -41 -31 -46 -31 -7 0 17 -5 31 -11 31 -6 0 -9 -14 -7 -32z"/>
<path d="M15192 6081 c-19 -12 -11 -55 12 -59 10 -2 23 1 29 7 9 9 5 11 -13 9
-17 -2 -25 2 -25 12 0 10 8 14 24 12 20 -2 22 0 11 13 -14 17 -20 18 -38 6z"/>
<path d="M15312 6078 c-10 -10 -8 -16 10 -31 17 -14 18 -17 6 -13 -10 3 -18 1
-18 -4 0 -6 11 -10 25 -10 32 0 33 27 3 40 -23 9 -23 9 2 10 20 0 22 2 10 10
-20 13 -24 12 -38 -2z"/>
<path d="M3460 5961 c0 -13 -8 -21 -22 -23 -19 -2 -23 -9 -23 -38 0 -32 2 -35
32 -37 l32 -1 0 54 c-1 30 -5 57 -10 60 -5 3 -9 -4 -9 -15z m0 -62 c0 -10 -7
-19 -15 -19 -15 0 -21 31 -9 43 11 10 24 -3 24 -24z"/>
<path d="M4106 5971 c-4 -5 -2 -12 3 -15 5 -4 12 -2 15 3 4 5 2 12 -3 15 -5 4
-12 2 -15 -3z"/>
<path d="M4286 5971 c-4 -5 -2 -12 3 -15 5 -4 12 -2 15 3 4 5 2 12 -3 15 -5 4
-12 2 -15 -3z"/>
<path d="M3180 5915 c0 -30 5 -55 10 -55 6 0 10 9 10 20 0 13 7 20 20 20 21 0
41 35 33 58 -3 6 -20 12 -39 12 l-34 0 0 -55z m55 25 c0 -8 -8 -16 -17 -18
-13 -2 -18 3 -18 18 0 15 5 20 18 18 9 -2 17 -10 17 -18z"/>
<path d="M3654 5955 c-15 -29 -3 -89 19 -93 9 -2 17 1 17 7 0 6 -4 11 -10 11
-5 0 -10 11 -10 25 0 14 6 25 13 25 8 0 9 3 1 8 -6 4 -13 14 -16 22 -4 12 -7
11 -14 -5z"/>
<path d="M3730 5915 c0 -54 0 -55 29 -55 37 0 61 23 61 59 0 36 -17 51 -57 51
l-33 0 0 -55z m60 31 c18 -23 8 -61 -17 -64 -21 -3 -23 1 -23 37 0 43 17 54
40 27z"/>
<path d="M4234 5955 c-15 -29 -3 -89 19 -93 9 -2 17 1 17 7 0 6 -4 11 -10 11
-5 0 -10 11 -10 25 0 14 6 25 13 25 8 0 9 3 1 8 -6 4 -13 14 -16 22 -4 12 -7
11 -14 -5z"/>
<path d="M3270 5900 c0 -22 5 -40 10 -40 6 0 10 12 10 26 0 15 8 33 18 40 15
12 14 13 -10 14 -26 0 -28 -3 -28 -40z"/>
<path d="M3330 5920 c-14 -26 3 -60 30 -60 27 0 44 34 30 60 -6 11 -19 20 -30
20 -11 0 -24 -9 -30 -20z m47 -6 c8 -21 -13 -42 -28 -27 -13 13 -5 43 11 43 6
0 13 -7 17 -16z"/>
<path d="M3490 5913 c0 -39 11 -51 43 -51 25 0 27 4 27 39 0 22 -4 39 -10 39
-5 0 -10 -13 -10 -30 0 -20 -5 -30 -15 -30 -10 0 -15 10 -15 30 0 17 -4 30
-10 30 -5 0 -10 -12 -10 -27z"/>
<path d="M3574 5915 c-4 -15 -1 -32 6 -40 14 -17 50 -20 50 -5 0 6 -9 10 -21
10 -15 0 -20 5 -17 23 2 14 9 21 21 21 9 -1 17 2 17 7 0 5 -11 9 -25 9 -18 0
-26 -7 -31 -25z"/>
<path d="M3840 5925 c-10 -12 -10 -21 -2 -40 12 -25 45 -34 57 -15 4 6 -5 10
-19 10 -14 0 -26 5 -26 10 0 6 12 10 26 10 19 0 25 5 22 18 -4 22 -41 27 -58
7z m40 -5 c0 -5 -7 -10 -16 -10 -8 0 -12 5 -9 10 3 6 10 10 16 10 5 0 9 -4 9
-10z"/>
<path d="M3915 5929 c-4 -5 0 -18 9 -28 20 -22 20 -32 1 -25 -8 4 -15 1 -15
-5 0 -6 9 -11 20 -11 27 0 38 29 17 45 -21 15 -22 29 -2 21 8 -3 15 -1 15 4 0
13 -37 13 -45 -1z"/>
<path d="M3980 5925 c-18 -21 2 -65 30 -65 26 0 26 16 -1 23 -25 7 -22 43 4
41 9 -1 17 2 17 7 0 15 -37 10 -50 -6z"/>
<path d="M4051 5898 c2 -31 3 -35 6 -15 3 16 11 31 19 34 21 8 17 23 -6 23
-17 0 -20 -6 -19 -42z"/>
<path d="M4110 5899 c0 -24 4 -38 10 -34 6 3 10 22 10 41 0 19 -4 34 -10 34
-5 0 -10 -18 -10 -41z"/>
<path d="M4145 5890 c0 -27 3 -50 7 -50 5 0 8 4 8 9 0 5 10 11 23 13 18 2 22
9 22 38 0 32 -3 35 -30 38 -30 3 -30 2 -30 -48z m47 28 c7 -19 -2 -38 -18 -38
-8 0 -14 8 -14 18 0 30 23 44 32 20z"/>
<path d="M4280 5900 c0 -22 5 -40 10 -40 6 0 10 18 10 40 0 22 -4 40 -10 40
-5 0 -10 -18 -10 -40z"/>
<path d="M4324 5926 c-11 -28 1 -61 22 -64 28 -4 48 22 40 53 -5 18 -13 25
-32 25 -13 0 -27 -6 -30 -14z m46 -27 c0 -20 -24 -26 -35 -9 -8 13 14 42 26
34 5 -3 9 -14 9 -25z"/>
<path d="M4400 5901 c0 -49 17 -55 22 -8 2 17 8 32 13 32 6 0 11 -15 13 -32 2
-18 8 -33 13 -33 6 0 9 17 7 38 -3 34 -6 37 -35 40 -32 3 -33 2 -33 -37z"/>
<path d="M13740 5721 c0 -23 2 -41 4 -41 8 0 12 71 4 76 -4 3 -8 -13 -8 -35z"/>
<path d="M13788 5724 c-2 -19 0 -37 4 -40 4 -3 8 13 8 35 0 51 -6 53 -12 5z"/>
<path d="M14090 5740 c0 -19 3 -21 12 -12 9 9 9 15 0 24 -9 9 -12 7 -12 -12z"/>
<path d="M14623 5753 c-21 -8 -15 -33 12 -45 14 -6 25 -15 25 -19 0 -15 -21
-21 -35 -9 -10 8 -15 9 -15 2 0 -16 18 -24 40 -17 29 9 25 43 -5 51 -14 3 -25
9 -25 13 0 16 13 20 31 10 11 -6 19 -6 19 0 0 7 -26 23 -33 20 -1 0 -8 -3 -14
-6z"/>
<path d="M14953 5710 c0 -30 2 -43 4 -27 2 15 2 39 0 55 -2 15 -4 2 -4 -28z"/>
<path d="M15090 5705 c0 -43 1 -45 28 -44 23 2 24 2 5 6 -13 2 -23 11 -23 18
0 7 10 16 23 18 l22 4 -22 2 c-33 2 -29 29 5 34 25 4 25 4 -5 6 -33 1 -33 0
-33 -44z"/>
<path d="M15238 5737 c-8 -22 7 -70 22 -75 12 -4 13 -2 3 9 -15 15 -17 46 -4
51 5 2 3 8 -4 15 -10 9 -14 9 -17 0z"/>
<path d="M13561 5713 c1 -22 2 -23 6 -8 3 11 10 23 17 27 7 5 5 8 -6 8 -13 0
-18 -7 -17 -27z"/>
<path d="M13611 5713 c2 -24 2 -25 6 -5 2 12 8 22 13 22 5 0 11 -10 13 -22 4
-20 4 -19 6 5 1 21 -4 27 -19 27 -15 0 -20 -6 -19 -27z"/>
<path d="M13666 5733 c7 -4 14 -17 17 -28 5 -16 5 -15 4 4 -1 14 -9 26 -17 28
-10 3 -11 2 -4 -4z"/>
<path d="M13838 5733 c7 -3 16 -2 19 1 4 3 -2 6 -13 5 -11 0 -14 -3 -6 -6z"/>
<path d="M13882 5710 c0 -19 2 -27 5 -17 2 9 2 25 0 35 -3 9 -5 1 -5 -18z"/>
<path d="M13908 5731 c5 -3 12 -15 15 -26 4 -18 5 -18 6 3 1 31 19 28 24 -5 4
-27 4 -26 6 4 1 29 -1 32 -30 31 -16 -1 -26 -4 -21 -7z"/>
<path d="M13987 5733 c-10 -9 -9 -41 2 -47 4 -3 6 5 4 18 -4 17 0 25 14 29 13
3 14 5 2 6 -9 0 -19 -2 -22 -6z"/>
<path d="M14708 5723 c27 -6 29 -23 2 -23 -21 0 -28 -24 -10 -35 6 -3 7 1 4 9
-4 11 0 16 11 16 9 0 14 -4 10 -9 -3 -5 0 -13 6 -16 7 -5 9 4 7 26 -2 28 -7
34 -28 36 -22 1 -22 1 -2 -4z"/>
<path d="M14762 5692 c1 -37 1 -37 5 -4 3 18 10 32 18 32 8 0 15 -14 18 -32
l4 -33 1 33 c1 20 7 32 16 32 9 0 17 -13 19 -32 l5 -33 -2 35 c-1 34 -2 35
-43 37 l-43 3 2 -38z"/>
<path d="M14871 5681 c1 -25 3 -38 6 -29 2 9 10 15 17 12 17 -7 39 21 34 43
-2 12 -13 18 -31 19 -26 1 -27 -1 -26 -45z m46 23 c8 -21 -13 -42 -28 -27 -13
13 -5 43 11 43 6 0 13 -7 17 -16z"/>
<path d="M14982 5713 c-18 -32 24 -74 42 -44 4 5 -3 7 -14 4 -11 -3 -20 0 -20
6 0 6 9 11 21 11 14 0 19 5 17 17 -5 25 -35 28 -46 6z m38 -3 c0 -5 -7 -10
-15 -10 -8 0 -15 5 -15 10 0 6 7 10 15 10 8 0 15 -4 15 -10z"/>
<path d="M15161 5691 c1 -36 1 -36 8 -6 3 17 13 30 21 30 8 0 18 -13 22 -30 6
-29 6 -29 5 5 -2 31 -5 35 -29 36 -26 1 -28 -2 -27 -35z"/>
<path d="M15285 5709 c-10 -30 16 -55 41 -40 17 11 17 11 -3 6 -12 -3 -24 -1
-28 5 -4 6 5 10 20 10 21 0 26 4 21 16 -3 9 -6 18 -6 20 0 2 -9 4 -19 4 -11 0
-23 -9 -26 -21z m40 1 c3 -5 -3 -10 -15 -10 -12 0 -18 5 -15 10 3 6 10 10 15
10 5 0 12 -4 15 -10z"/>
<path d="M15361 5698 c2 -28 2 -29 6 -8 3 14 10 28 17 32 7 5 5 8 -6 8 -14 0
-18 -8 -17 -32z"/>
<path d="M15416 5718 c-2 -7 -7 -26 -11 -41 -5 -26 -4 -28 17 -22 38 12 54 33
42 53 -14 21 -43 28 -48 10z m37 -11 c6 -17 -3 -32 -24 -39 -12 -5 -14 0 -11
23 4 30 26 39 35 16z"/>
<path d="M15481 5690 c1 -27 3 -29 6 -10 2 14 11 30 20 37 13 10 13 12 -6 10
-17 -1 -21 -7 -20 -37z"/>
<path d="M15533 5695 c0 -22 2 -30 4 -17 2 12 2 30 0 40 -3 9 -5 -1 -4 -23z"/>
<path d="M15570 5710 c0 -11 7 -20 15 -20 8 0 15 -5 15 -11 0 -6 -9 -8 -21 -4
-15 5 -19 4 -15 -4 4 -6 13 -11 21 -11 22 0 29 22 12 35 -21 15 -22 29 -1 21
8 -3 12 -2 9 4 -11 18 -35 11 -35 -10z"/>
<path d="M15640 5715 c-6 -8 -9 -23 -5 -35 7 -21 39 -27 51 -9 4 7 0 9 -14 5
-11 -4 -23 -2 -27 4 -4 6 4 10 19 10 28 0 33 9 14 28 -16 16 -23 15 -38 -3z
m35 -5 c3 -5 -3 -10 -15 -10 -12 0 -18 5 -15 10 3 6 10 10 15 10 5 0 12 -4 15
-10z"/>
<path d="M13472 5360 c0 -14 2 -19 5 -12 2 6 2 18 0 25 -3 6 -5 1 -5 -13z"/>
<path d="M13693 5345 c0 -22 2 -30 4 -17 2 12 2 30 0 40 -3 9 -5 -1 -4 -23z"/>
<path d="M13921 5343 c2 -32 3 -33 6 -10 4 25 7 27 21 15 12 -9 12 -7 -2 10
-11 12 -21 22 -23 22 -1 0 -2 -17 -2 -37z"/>
<path d="M13852 5340 c0 -19 2 -27 5 -17 2 9 2 25 0 35 -3 9 -5 1 -5 -18z"/>
<path d="M14275 5360 c3 -5 8 -10 11 -10 2 0 4 5 4 10 0 6 -5 10 -11 10 -5 0
-7 -4 -4 -10z"/>
<path d="M13540 5335 c0 -14 2 -25 4 -25 2 0 6 11 8 25 3 14 1 25 -3 25 -5 0
-9 -11 -9 -25z"/>
<path d="M13583 5345 c-3 -9 -3 -18 -1 -21 3 -3 8 4 11 16 6 23 -1 27 -10 5z"/>
<path d="M13722 5335 c0 -16 2 -22 5 -12 2 9 2 23 0 30 -3 6 -5 -1 -5 -18z"/>
<path d="M13783 5344 c-3 -8 -2 -19 3 -24 5 -5 9 1 9 16 0 28 -3 30 -12 8z"/>
<path d="M14035 5339 c6 -30 15 -37 15 -11 0 11 -4 23 -9 27 -6 3 -8 -4 -6
-16z"/>
<path d="M14100 5335 c0 -14 2 -25 4 -25 2 0 6 11 8 25 3 14 1 25 -3 25 -5 0
-9 -11 -9 -25z"/>
<path d="M14138 5333 c5 -21 7 -23 10 -9 2 10 0 22 -6 28 -6 6 -7 0 -4 -19z"/>
<path d="M14163 5345 c-3 -9 -3 -18 -1 -21 3 -3 8 4 11 16 6 23 -1 27 -10 5z"/>
<path d="M14196 5347 c3 -10 9 -15 12 -12 3 3 0 11 -7 18 -10 9 -11 8 -5 -6z"/>
<path d="M13474 4996 c-3 -8 -4 -27 -1 -43 3 -24 4 -23 6 9 0 20 7 39 14 41 9
4 9 6 -1 6 -7 1 -15 -5 -18 -13z"/>
<path d="M13689 4998 c0 -7 -2 -25 -3 -40 -1 -16 2 -28 6 -28 4 0 8 18 8 40 0
22 -2 40 -5 40 -3 0 -5 -6 -6 -12z"/>
<path d="M13853 4965 c0 -22 2 -30 4 -17 2 12 2 30 0 40 -3 9 -5 -1 -4 -23z"/>
<path d="M13927 4993 c-9 -9 -9 -51 1 -56 4 -3 7 10 7 29 0 19 0 34 -1 34 0 0
-4 -3 -7 -7z"/>
<path d="M14109 4993 c-4 -42 -3 -63 3 -63 4 0 8 16 8 35 0 19 -2 35 -5 35 -3
0 -5 -3 -6 -7z"/>
<path d="M14245 4980 c3 -5 11 -10 16 -10 6 0 7 5 4 10 -3 6 -11 10 -16 10 -6
0 -7 -4 -4 -10z"/>
<path d="M13542 4955 c0 -16 2 -22 5 -12 2 9 2 23 0 30 -3 6 -5 -1 -5 -18z"/>
<path d="M14002 4960 c0 -14 2 -19 5 -12 2 6 2 18 0 25 -3 6 -5 1 -5 -13z"/>
<path d="M13580 4956 c0 -8 4 -17 9 -20 5 -4 7 3 4 14 -6 23 -13 26 -13 6z"/>
<path d="M13780 4956 c0 -8 4 -17 9 -20 5 -4 7 3 4 14 -6 23 -13 26 -13 6z"/>
<path d="M14037 4951 c-4 -17 -3 -21 5 -13 5 5 8 16 6 23 -3 8 -7 3 -11 -10z"/>
<path d="M13472 4588 c1 -41 1 -41 5 -8 3 19 10 38 16 42 8 5 6 8 -5 8 -15 0
-18 -8 -16 -42z"/>
<path d="M13690 4615 c0 -8 -6 -12 -14 -9 -8 3 -17 1 -20 -4 -3 -5 2 -9 11 -8
10 0 19 -9 24 -24 5 -20 6 -16 7 18 0 23 -2 42 -4 42 -2 0 -4 -7 -4 -15z"/>
<path d="M13850 4587 c0 -20 3 -37 8 -37 9 0 8 57 -1 67 -4 3 -7 -10 -7 -30z"/>
<path d="M13612 4596 c7 -8 15 -12 17 -11 5 6 -10 25 -20 25 -5 0 -4 -6 3 -14z"/>
<path d="M13542 4575 c0 -16 2 -22 5 -12 2 9 2 23 0 30 -3 6 -5 -1 -5 -18z"/>
<path d="M13580 4581 c0 -11 4 -22 9 -25 4 -3 6 6 3 19 -5 30 -12 33 -12 6z"/>
<path d="M13780 4576 c0 -8 4 -17 9 -20 5 -4 7 3 4 14 -6 23 -13 26 -13 6z"/>
<path d="M13745 4560 c-3 -5 -1 -10 4 -10 6 0 11 5 11 10 0 6 -2 10 -4 10 -3
0 -8 -4 -11 -10z"/>
<path d="M13473 4455 c0 -22 2 -30 4 -17 2 12 2 30 0 40 -3 9 -5 -1 -4 -23z"/>
<path d="M13515 4455 c0 -18 3 -31 8 -28 4 2 7 15 7 28 0 13 -3 26 -7 28 -5 3
-8 -10 -8 -28z"/>
<path d="M13883 4455 c0 -22 2 -30 4 -17 2 12 2 30 0 40 -3 9 -5 -1 -4 -23z"/>
<path d="M13550 4458 c0 -12 7 -18 23 -17 15 0 17 2 7 6 -8 3 -18 11 -22 17
-5 7 -8 4 -8 -6z"/>
<path d="M13782 4445 c0 -16 2 -22 5 -12 2 9 2 23 0 30 -3 6 -5 -1 -5 -18z"/>
<path d="M13846 4455 c4 -8 0 -23 -7 -33 -13 -15 -12 -16 4 -3 19 15 22 36 7
46 -6 3 -7 -1 -4 -10z"/>
<path d="M13943 4454 c-3 -8 -2 -19 3 -24 5 -5 9 1 9 16 0 28 -3 30 -12 8z"/>
<path d="M13982 4445 c0 -16 2 -22 5 -12 2 9 2 23 0 30 -3 6 -5 -1 -5 -18z"/>
<path d="M14012 4445 c0 -16 2 -22 5 -12 2 9 2 23 0 30 -3 6 -5 -1 -5 -18z"/>
<path d="M14048 4443 c5 -21 7 -23 10 -9 2 10 0 22 -6 28 -6 6 -7 0 -4 -19z"/>
<path d="M3400 4435 c0 -20 -5 -25 -25 -25 -27 0 -45 -25 -45 -63 0 -32 18
-46 58 -45 l32 1 0 79 c0 45 -4 78 -10 78 -5 0 -10 -11 -10 -25z m-5 -81 c0
-19 -6 -30 -17 -32 -14 -3 -18 3 -18 26 0 16 3 32 7 36 14 13 28 -1 28 -30z"/>
<path d="M3514 4445 c-3 -8 -3 -19 1 -25 4 -6 -4 -10 -19 -10 -36 0 -63 -42
-50 -78 8 -23 15 -27 52 -28 l42 -1 0 79 c0 47 -4 78 -10 78 -6 0 -13 -7 -16
-15z m-4 -91 c0 -28 -3 -35 -17 -32 -31 6 -29 68 2 68 11 0 15 -10 15 -36z"/>
<path d="M3622 4444 c-33 -23 -28 -51 13 -76 43 -25 40 -44 -4 -40 -41 3 -38
-21 3 -26 60 -7 76 58 22 87 -32 18 -32 35 -1 38 38 2 40 4 21 18 -25 19 -26
19 -54 -1z"/>
<path d="M4000 4380 c0 -47 4 -80 10 -80 6 0 10 11 10 25 0 14 4 25 8 25 5 0
14 -11 20 -25 6 -14 19 -25 27 -25 14 0 14 3 -1 29 -16 28 -16 31 0 55 14 22
14 26 2 26 -9 0 -20 -9 -26 -20 -18 -33 -30 -23 -30 25 0 25 -4 45 -10 45 -6
0 -10 -33 -10 -80z"/>
<path d="M13617 4449 c7 -7 15 -10 18 -7 3 3 -2 9 -12 12 -14 6 -15 5 -6 -5z"/>
<path d="M13671 4444 c0 -11 3 -14 6 -6 3 7 2 16 -1 19 -3 4 -6 -2 -5 -13z"/>
<path d="M3229 4423 c-47 -123 -47 -123 -33 -123 7 0 18 9 24 20 6 12 21 20
36 20 17 0 28 -7 31 -20 3 -11 12 -20 19 -20 18 0 18 -3 -12 79 -28 76 -48 89
-65 44z m38 -59 c-3 -3 -12 -4 -20 -2 -11 2 -12 9 -5 28 l10 25 11 -23 c5 -12
8 -25 4 -28z"/>
<path d="M3713 4415 c-6 -14 -7 -27 -2 -31 5 -3 9 -23 9 -45 0 -35 3 -39 25
-39 14 0 25 5 25 10 0 6 -7 10 -15 10 -10 0 -15 11 -15 35 0 24 5 35 15 35 8
0 15 5 15 10 0 6 -7 10 -15 10 -8 0 -15 7 -15 15 0 23 -14 18 -27 -10z"/>
<path d="M3796 4394 c-33 -33 -12 -94 32 -94 36 0 52 17 52 55 0 17 -5 36 -12
43 -17 17 -54 15 -72 -4z m60 -30 c8 -29 -7 -49 -30 -41 -16 6 -22 48 -9 60
14 15 33 6 39 -19z"/>
<path d="M3912 4398 c-17 -17 -15 -73 2 -88 18 -14 58 -10 64 8 3 9 -3 11 -21
7 -30 -8 -41 7 -33 42 6 21 11 24 32 19 19 -5 25 -3 22 6 -6 18 -50 22 -66 6z"/>
<path d="M4112 4398 c-19 -19 -14 -37 13 -50 31 -14 27 -34 -5 -30 -14 2 -20
0 -16 -7 10 -15 51 -14 65 3 15 18 5 43 -20 49 -10 3 -19 11 -19 17 0 8 8 10
21 7 13 -3 19 -1 16 6 -5 17 -40 20 -55 5z"/>
<path d="M4236 4403 c-11 -11 -6 -23 9 -23 8 0 15 4 15 9 0 13 -16 22 -24 14z"/>
<path d="M13578 4123 c-2 -10 -1 -29 3 -43 6 -20 7 -17 8 18 1 44 -4 54 -11
25z"/>
<path d="M13952 4100 c0 -25 2 -39 5 -32 4 10 8 10 21 0 15 -11 15 -11 5 3
-10 12 -10 18 0 29 10 12 9 12 -5 1 -14 -11 -17 -9 -21 16 -2 18 -4 12 -5 -17z"/>
<path d="M13711 4117 c-1 -11 7 -21 19 -24 11 -3 20 -12 20 -20 0 -11 -7 -14
-21 -10 -16 4 -19 3 -11 -5 14 -14 42 -3 42 18 0 9 -9 18 -19 21 -11 3 -22 12
-24 22 -4 13 -5 13 -6 -2z"/>
<path d="M14105 4110 c-3 -5 3 -10 15 -10 12 0 18 5 15 10 -3 6 -10 10 -15 10
-5 0 -12 -4 -15 -10z"/>
<path d="M13540 4085 c0 -14 2 -25 4 -25 2 0 6 11 8 25 3 14 1 25 -3 25 -5 0
-9 -11 -9 -25z"/>
<path d="M13824 4095 c-3 -8 -4 -20 -2 -27 3 -7 7 -1 10 15 6 29 1 36 -8 12z"/>
<path d="M13857 4089 c4 -13 8 -18 11 -10 2 7 -1 18 -6 23 -8 8 -9 4 -5 -13z"/>
<path d="M13890 4099 c0 -5 5 -7 10 -4 6 3 10 8 10 11 0 2 -4 4 -10 4 -5 0
-10 -5 -10 -11z"/>
<path d="M14010 4100 c0 -6 7 -13 15 -16 8 -4 15 -11 15 -16 0 -6 -8 -7 -17
-3 -15 5 -16 4 -5 -6 9 -10 15 -10 24 -1 9 9 7 16 -10 32 -12 12 -22 16 -22
10z"/>
<path d="M13470 4079 c0 -5 5 -7 10 -4 6 3 10 8 10 11 0 2 -4 4 -10 4 -5 0
-10 -5 -10 -11z"/>
<path d="M13645 4070 c-3 -5 -1 -10 4 -10 6 0 11 5 11 10 0 6 -2 10 -4 10 -3
0 -8 -4 -11 -10z"/>
<path d="M13897 4059 c7 -7 15 -10 18 -7 3 3 -2 9 -12 12 -14 6 -15 5 -6 -5z"/>
<path d="M3680 3915 c0 -54 13 -74 23 -35 3 12 14 20 25 20 25 0 38 35 22 55
-7 8 -25 15 -41 15 -28 0 -29 -1 -29 -55z m55 15 c0 -22 -29 -18 -33 3 -3 14
1 18 15 15 10 -2 18 -10 18 -18z"/>
<path d="M3980 3915 c0 -30 5 -55 10 -55 6 0 10 14 10 30 0 20 5 30 15 30 10
0 15 -10 15 -30 0 -38 14 -40 17 -2 2 32 -15 55 -34 48 -8 -3 -13 2 -13 14 0
11 -4 20 -10 20 -5 0 -10 -25 -10 -55z"/>
<path d="M4330 3956 c0 -8 -10 -16 -22 -18 -18 -2 -24 -11 -26 -37 -4 -37 9
-51 39 -44 16 4 19 15 19 59 0 30 -2 54 -5 54 -3 0 -5 -6 -5 -14z m-3 -52 c8
-21 -13 -42 -28 -27 -13 13 -5 43 11 43 6 0 13 -7 17 -16z"/>
<path d="M4390 3915 l0 -55 33 0 c42 0 57 15 57 57 0 36 -21 53 -64 53 -25 0
-26 -3 -26 -55z m68 7 c4 -26 -13 -52 -34 -52 -10 0 -14 13 -14 41 0 36 2 40
23 37 14 -2 23 -11 25 -26z"/>
<path d="M6501 3951 c-9 -16 -8 -19 6 -17 20 3 28 21 14 30 -5 4 -15 -2 -20
-13z"/>
<path d="M6570 3960 c0 -29 26 -100 37 -100 6 0 15 16 19 35 7 40 20 38 29 -5
12 -53 32 -33 50 48 4 20 3 32 -4 32 -5 0 -13 -16 -17 -35 -7 -40 -19 -38 -27
5 -4 16 -11 30 -17 30 -6 0 -13 -14 -17 -30 -8 -43 -20 -45 -27 -5 -6 31 -26
50 -26 25z"/>
<path d="M6930 3915 c0 -30 5 -55 10 -55 6 0 10 14 10 31 0 39 22 34 32 -7 5
-25 6 -23 5 11 -2 31 -6 40 -19 39 -11 -1 -18 5 -18 17 0 11 -4 19 -10 19 -5
0 -10 -25 -10 -55z"/>
<path d="M7356 3955 c-19 -19 -21 -66 -4 -83 15 -15 65 -16 74 -1 5 8 -1 10
-18 6 -33 -9 -53 13 -44 49 5 19 12 25 29 22 12 -1 23 2 25 7 5 17 -45 17 -62
0z"/>
<path d="M7570 3957 c0 -7 -10 -17 -22 -22 -25 -11 -35 -49 -19 -69 6 -7 22
-11 36 -8 23 4 25 9 25 58 0 30 -4 54 -10 54 -5 0 -10 -6 -10 -13z m-2 -59
c-5 -32 -28 -35 -28 -4 0 17 5 26 16 26 10 0 14 -7 12 -22z"/>
<path d="M9470 3915 c0 -30 5 -55 10 -55 6 0 10 9 10 19 0 13 8 21 23 23 14 2
23 11 25 27 4 26 -12 41 -45 41 -21 0 -23 -5 -23 -55z m48 18 c-5 -25 -28 -28
-28 -4 0 12 6 21 16 21 9 0 14 -7 12 -17z"/>
<path d="M9772 3915 c0 -41 2 -51 7 -31 9 41 31 46 31 7 0 -17 5 -31 11 -31 6
0 9 16 7 38 -2 29 -7 37 -23 37 -11 0 -23 9 -27 20 -3 11 -6 -7 -6 -40z"/>
<path d="M10110 3957 c0 -7 -10 -17 -22 -22 -25 -11 -35 -49 -19 -69 6 -7 22
-11 36 -8 23 4 25 9 25 58 0 30 -4 54 -10 54 -5 0 -10 -6 -10 -13z m-2 -59
c-5 -32 -28 -35 -28 -4 0 17 5 26 16 26 10 0 14 -7 12 -22z"/>
<path d="M10187 3952 c-31 -34 -14 -92 27 -92 13 0 29 -7 36 -15 7 -8 17 -15
23 -15 7 0 7 4 -1 12 -7 7 -9 27 -5 54 7 50 -7 74 -42 74 -12 0 -29 -8 -38
-18z m63 -17 c25 -30 -16 -79 -46 -54 -15 12 -19 51 -7 62 11 12 40 8 53 -8z"/>
<path d="M3607 3946 c-4 -9 0 -13 11 -12 9 2 18 8 20 14 5 17 -25 15 -31 -2z"/>
<path d="M4578 3948 c-3 -7 -3 -30 0 -50 3 -31 8 -38 26 -37 11 0 15 3 9 6
-15 6 -17 53 -3 53 6 0 5 8 -2 20 -15 23 -24 25 -30 8z"/>
<path d="M9390 3950 c0 -5 7 -10 15 -10 8 0 15 5 15 10 0 6 -7 10 -15 10 -8 0
-15 -4 -15 -10z"/>
<path d="M10292 3939 c-6 -10 -8 -21 -3 -24 5 -3 7 -13 4 -23 -5 -21 22 -49
32 -32 3 5 1 10 -4 10 -15 0 -14 47 1 52 10 4 9 9 -3 20 -14 14 -17 14 -27 -3z"/>
<path d="M3770 3907 c0 -39 14 -57 41 -50 15 4 19 14 18 47 l-2 41 -6 -34 c-8
-48 -31 -53 -31 -7 0 20 -4 36 -10 36 -5 0 -10 -15 -10 -33z"/>
<path d="M3850 3899 c0 -22 5 -39 10 -39 6 0 10 11 10 25 0 14 7 28 15 31 23
9 18 22 -10 22 -22 0 -25 -5 -25 -39z"/>
<path d="M3922 3928 c-29 -29 -1 -84 36 -71 20 8 14 22 -8 16 -16 -4 -20 0
-20 21 0 20 5 26 21 26 11 0 17 5 14 10 -8 14 -28 13 -43 -2z"/>
<path d="M4070 3930 c-12 -8 -11 -10 8 -10 12 0 22 -4 22 -10 0 -5 -7 -10 -15
-10 -20 0 -32 -30 -15 -40 7 -4 21 -5 32 -2 15 4 18 12 16 41 -3 38 -21 49
-48 31z m30 -50 c0 -5 -4 -10 -10 -10 -5 0 -10 5 -10 10 0 6 5 10 10 10 6 0
10 -4 10 -10z"/>
<path d="M4147 3933 c-13 -12 -7 -43 8 -43 8 0 15 -4 15 -10 0 -5 -8 -10 -17
-10 -13 0 -14 -3 -5 -12 10 -9 16 -8 30 5 16 17 16 19 -8 37 l-25 20 23 0 c13
0 20 4 17 10 -7 11 -28 13 -38 3z"/>
<path d="M4212 3928 c-28 -28 -1 -84 36 -71 20 8 14 22 -8 16 -11 -3 -20 0
-20 6 0 6 9 11 21 11 15 0 20 5 17 22 -3 26 -28 34 -46 16z m35 -14 c-3 -3
-12 -4 -19 -1 -8 3 -5 6 6 6 11 1 17 -2 13 -5z"/>
<path d="M4505 3930 c-3 -5 3 -10 14 -10 12 0 21 -4 21 -10 0 -5 -6 -10 -13
-10 -7 0 -18 -5 -25 -12 -17 -17 3 -36 33 -30 19 3 25 11 25 31 0 40 -38 69
-55 41z m30 -50 c-3 -5 -11 -10 -16 -10 -6 0 -7 5 -4 10 3 6 11 10 16 10 6 0
7 -4 4 -10z"/>
<path d="M4643 3933 c-20 -7 -16 -61 5 -71 18 -10 42 -5 42 8 0 4 -8 6 -19 3
-10 -3 -22 0 -25 6 -5 7 3 11 19 11 22 0 26 4 23 22 -3 23 -22 31 -45 21z"/>
<path d="M6725 3931 c-3 -7 3 -11 14 -11 12 0 21 -4 21 -10 0 -5 -6 -10 -13
-10 -7 0 -18 -5 -25 -12 -17 -17 3 -36 31 -31 21 4 23 9 18 41 -6 36 -32 55
-46 33z m30 -51 c-3 -5 -11 -10 -16 -10 -6 0 -7 5 -4 10 3 6 11 10 16 10 6 0
7 -4 4 -10z"/>
<path d="M6790 3899 c0 -22 5 -39 10 -39 6 0 10 11 10 25 0 14 7 28 15 31 23
9 18 22 -10 22 -22 0 -25 -5 -25 -39z"/>
<path d="M6862 3928 c-28 -28 -1 -84 36 -71 20 8 14 22 -8 16 -11 -3 -20 0
-20 6 0 6 9 11 21 11 15 0 20 5 17 22 -3 26 -28 34 -46 16z m35 -14 c-3 -3
-12 -4 -19 -1 -8 3 -5 6 6 6 11 1 17 -2 13 -5z"/>
<path d="M7023 3933 c-21 -8 -16 -61 6 -73 36 -19 69 38 39 68 -13 13 -24 14
-45 5z m35 -35 c-4 -27 -23 -34 -32 -13 -8 21 1 35 20 35 10 0 14 -8 12 -22z"/>
<path d="M7090 3907 c0 -41 14 -55 46 -49 20 3 24 10 24 38 0 43 -18 54 -22
12 -4 -46 -28 -49 -28 -4 0 20 -4 36 -10 36 -5 0 -10 -15 -10 -33z"/>
<path d="M7179 3924 c-11 -14 -9 -19 11 -35 l25 -19 -25 0 c-19 0 -21 -3 -11
-9 35 -22 57 20 24 45 -17 13 -17 13 0 14 9 0 17 5 17 10 0 16 -26 12 -41 -6z"/>
<path d="M7242 3923 c-10 -19 0 -57 16 -67 12 -7 42 3 42 14 0 5 -8 6 -19 3
-10 -3 -22 0 -25 6 -5 7 3 11 18 11 19 0 26 5 26 19 0 17 -18 31 -40 31 -5 0
-13 -8 -18 -17z"/>
<path d="M7453 3933 c-21 -8 -16 -61 6 -73 36 -19 69 38 39 68 -13 13 -24 14
-45 5z m35 -35 c-4 -27 -23 -34 -32 -13 -8 21 1 35 20 35 10 0 14 -8 12 -22z"/>
<path d="M7612 3928 c-28 -28 0 -81 38 -71 11 3 20 10 20 15 0 5 -9 7 -19 3
-11 -3 -22 -1 -26 5 -3 5 3 10 14 10 26 0 36 17 21 35 -15 18 -32 19 -48 3z
m35 -14 c-3 -3 -12 -4 -19 -1 -8 3 -5 6 6 6 11 1 17 -2 13 -5z"/>
<path d="M9561 3940 c-20 -47 -2 -89 34 -83 22 5 25 11 25 44 0 47 -17 52 -22
7 -4 -42 -21 -39 -29 4 -4 18 -7 31 -8 28z"/>
<path d="M9640 3898 c0 -21 5 -38 11 -38 6 0 9 9 6 20 -3 11 1 27 9 34 18 19
18 22 -6 22 -16 0 -20 -7 -20 -38z"/>
<path d="M9700 3921 c-5 -11 -10 -24 -10 -30 0 -17 30 -40 45 -35 21 8 19 22
-2 20 -26 -2 -29 34 -4 41 11 3 18 9 15 14 -9 15 -33 10 -44 -10z"/>
<path d="M9855 3930 c-3 -5 3 -10 14 -10 12 0 21 -4 21 -10 0 -5 -9 -10 -19
-10 -23 0 -35 -25 -18 -38 15 -11 51 -1 54 15 8 38 -35 81 -52 53z m30 -50
c-3 -5 -11 -10 -16 -10 -6 0 -7 5 -4 10 3 6 11 10 16 10 6 0 7 -4 4 -10z"/>
<path d="M9923 3924 c-4 -10 1 -22 10 -29 21 -15 22 -29 2 -21 -8 3 -15 1 -15
-3 0 -12 21 -19 38 -13 18 6 15 33 -5 48 -17 13 -17 13 0 14 10 0 15 5 12 10
-10 16 -35 12 -42 -6z"/>
<path d="M9992 3928 c-28 -28 0 -81 38 -71 11 3 20 10 20 15 0 5 -9 7 -19 3
-11 -3 -22 -1 -26 5 -3 5 3 10 14 10 26 0 36 17 21 35 -15 18 -32 19 -48 3z
m35 -14 c-3 -3 -12 -4 -19 -1 -8 3 -5 6 6 6 11 1 17 -2 13 -5z"/>
<path d="M10340 3936 c0 -3 5 -17 11 -33 7 -15 11 -38 10 -50 -1 -35 8 -27 30
24 22 52 20 83 -3 39 l-15 -29 -7 27 c-3 14 -11 26 -16 26 -6 0 -10 -2 -10 -4z"/>
<path d="M14750 3506 c0 -2 9 -6 20 -9 11 -3 18 -1 14 4 -5 9 -34 13 -34 5z"/>
<path d="M14893 3465 c0 -27 2 -38 4 -22 2 15 2 37 0 50 -2 12 -4 0 -4 -28z"/>
<path d="M14742 3474 c10 -10 20 -16 22 -13 3 3 -5 11 -17 18 -21 13 -21 12
-5 -5z"/>
<path d="M14814 3450 c1 -16 7 -25 19 -26 11 -1 12 0 3 3 -8 2 -17 14 -19 26
-3 18 -4 18 -3 -3z"/>
<path d="M14737 3429 c7 -7 15 -10 18 -7 3 3 -2 9 -12 12 -14 6 -15 5 -6 -5z"/>
<path d="M7370 3410 c0 -13 -7 -20 -20 -20 -11 0 -20 -7 -20 -15 0 -8 9 -15
20 -15 15 0 20 -7 20 -25 0 -16 6 -25 15 -25 9 0 15 9 15 25 0 18 5 25 20 25
11 0 20 7 20 15 0 8 -9 15 -20 15 -13 0 -20 7 -20 20 0 11 -7 20 -15 20 -8 0
-15 -9 -15 -20z m36 -46 c-26 -13 -52 2 -36 21 8 10 16 10 34 2 l24 -11 -22
-12z"/>
<path d="M7541 3376 c-24 -65 -26 -76 -8 -54 6 9 21 18 32 21 18 4 18 5 -2 6
-20 1 -21 4 -11 32 l11 32 13 -24 c7 -13 13 -19 13 -14 0 6 -6 21 -13 34 -13
24 -14 23 -35 -33z"/>
<path d="M7680 3411 c0 -12 -8 -21 -22 -23 -12 -2 -23 -9 -24 -16 -1 -7 0 -8
3 -2 2 5 13 10 23 10 14 0 20 -9 23 -37 2 -26 4 -17 5 25 1 34 0 62 -3 62 -3
0 -5 -9 -5 -19z"/>
<path d="M7770 3410 c0 -13 -7 -20 -19 -20 -11 0 -22 -4 -25 -9 -3 -4 6 -6 20
-3 23 4 25 2 22 -24 -2 -23 -8 -29 -25 -28 -13 0 -23 -3 -23 -8 0 -5 13 -7 30
-6 29 2 29 3 29 60 -1 32 -3 58 -5 58 -2 0 -4 -9 -4 -20z"/>
<path d="M14918 3423 c7 -3 16 -2 19 1 4 3 -2 6 -13 5 -11 0 -14 -3 -6 -6z"/>
<path d="M7840 3408 c0 -10 4 -18 9 -18 5 0 23 -19 40 -42 17 -23 31 -37 31
-30 0 6 -9 22 -19 34 -11 13 -29 34 -40 48 -17 20 -20 22 -21 8z"/>
<path d="M7954 3376 c-9 -24 0 -59 16 -64 12 -4 13 -2 3 9 -7 7 -13 23 -13 35
0 12 6 25 13 27 9 4 9 6 -1 6 -7 1 -15 -5 -18 -13z"/>
<path d="M7997 3369 c4 -13 8 -18 11 -10 2 7 -1 18 -6 23 -8 8 -9 4 -5 -13z"/>
<path d="M8031 3374 c0 -11 3 -14 6 -6 3 7 2 16 -1 19 -3 4 -6 -2 -5 -13z"/>
<path d="M8076 3381 c-4 -7 -5 -15 -2 -18 9 -9 19 4 14 18 -4 11 -6 11 -12 0z"/>
<path d="M8123 3375 c-3 -9 -3 -18 -1 -21 3 -3 8 4 11 16 6 23 -1 27 -10 5z"/>
<path d="M7591 3350 c0 -8 4 -22 9 -30 12 -18 12 -2 0 25 -6 13 -9 15 -9 5z"/>
<path d="M7633 3330 c2 -8 12 -16 23 -17 13 -2 15 -1 4 4 -8 3 -19 11 -23 17
-6 7 -7 6 -4 -4z"/>
<path d="M8046 3327 c3 -10 9 -15 12 -12 3 3 0 11 -7 18 -10 9 -11 8 -5 -6z"/>
<path d="M8107 3333 c-4 -3 -7 -11 -7 -17 0 -6 5 -5 12 2 6 6 9 14 7 17 -3 3
-9 2 -12 -2z"/>
<path d="M5055 2130 l0 -180 385 0 385 0 0 180 0 180 -385 0 -385 0 0 -180z
m755 0 l0 -170 -370 0 -370 0 0 170 0 170 370 0 370 0 0 -170z"/>
<path d="M5225 2190 c-12 -13 -15 -27 -11 -46 4 -15 2 -32 -6 -42 -11 -15 -11
-15 3 -5 8 7 25 10 37 6 29 -7 28 9 0 22 -49 21 -24 84 28 71 30 -8 27 -32 -5
-29 -29 4 -27 -9 4 -24 16 -7 23 -7 18 -1 -3 6 2 17 11 24 16 11 15 13 -6 28
-30 21 -51 20 -73 -4z"/>
<path d="M5358 2181 c-19 -18 -28 -37 -27 -57 2 -28 2 -28 8 5 10 56 31 51 31
-8 0 -50 -1 -51 -29 -51 -17 0 -33 5 -36 10 -5 8 -11 7 -21 -1 -8 -6 -25 -9
-39 -7 -13 3 -22 1 -19 -3 7 -13 52 -11 59 1 5 7 11 8 19 1 15 -13 217 -11
234 2 14 11 16 53 2 62 -6 4 -10 -8 -10 -29 0 -51 -27 -49 -33 2 l-4 37 -1
-37 c-1 -26 -7 -38 -17 -38 -8 0 -15 5 -15 12 0 9 -3 9 -12 0 -7 -7 -25 -12
-40 -12 -28 0 -28 0 -28 65 0 51 3 65 15 65 8 0 15 -9 15 -21 0 -13 4 -18 12
-13 6 4 17 -1 25 -11 7 -11 13 -15 13 -9 0 11 -55 64 -67 64 -4 0 -20 -13 -35
-29z"/>
<path d="M5567 2193 c-11 -11 -32 -17 -62 -17 -56 1 -50 -9 8 -12 57 -2 55 -2
60 -21 4 -14 5 -12 6 5 0 12 -4 22 -10 22 -16 0 0 20 25 30 13 6 15 9 6 9 -9
1 -23 -7 -33 -16z"/>
<path d="M5613 2185 c-3 -9 -3 -19 1 -22 3 -4 6 1 6 10 0 10 7 17 15 17 8 0
15 -7 15 -16 0 -8 5 -12 10 -9 8 5 7 11 -1 21 -15 19 -38 18 -46 -1z"/>
<path d="M5663 2144 c-15 -16 -17 -44 -3 -44 6 0 10 -7 10 -16 0 -10 -7 -14
-22 -12 -17 2 -25 12 -29 38 l-6 35 -2 -37 c-1 -26 -6 -38 -18 -40 -10 -2 4
-5 30 -5 52 -1 70 15 47 42 -10 12 -10 18 0 30 16 20 9 28 -7 9z"/>
<path d="M5410 2120 c0 -11 5 -20 10 -20 6 0 10 9 10 20 0 11 -4 20 -10 20 -5
0 -10 -9 -10 -20z"/>
<path d="M6162 2135 c0 -30 5 -55 9 -55 5 0 9 9 9 20 0 11 4 20 10 20 5 0 14
-9 20 -20 6 -11 16 -20 22 -20 6 0 5 9 -4 23 -11 16 -12 27 -5 38 16 26 1 49
-32 49 -29 0 -29 -1 -29 -55z m53 25 c0 -8 -8 -16 -17 -18 -13 -2 -18 3 -18
18 0 15 5 20 18 18 9 -2 17 -10 17 -18z"/>
<path d="M6472 2133 c2 -39 7 -48 23 -50 11 -2 14 0 8 3 -15 7 -17 50 -3 59 6
4 5 12 -4 21 -23 23 -27 17 -24 -33z"/>
<path d="M6261 2146 c-21 -26 -10 -61 22 -64 15 -2 27 1 27 6 0 6 -9 8 -20 5
-14 -4 -20 0 -20 11 0 10 8 16 21 16 14 0 19 5 17 17 -4 23 -31 28 -47 9z m34
-6 c3 -5 -1 -10 -10 -10 -9 0 -13 5 -10 10 3 6 8 10 10 10 2 0 7 -4 10 -10z"/>
<path d="M6333 2144 c-4 -10 1 -22 10 -29 22 -16 21 -22 0 -28 -14 -4 -13 -5
4 -6 32 -2 40 20 13 41 -20 16 -19 23 3 19 4 0 7 4 7 9 0 17 -30 11 -37 -6z"/>
<path d="M6401 2146 c-21 -26 -10 -61 22 -64 15 -2 27 1 27 6 0 6 -9 8 -20 5
-14 -4 -20 0 -20 11 0 10 8 16 21 16 14 0 19 5 17 17 -4 23 -31 28 -47 9z m34
-6 c3 -5 -1 -10 -10 -10 -9 0 -13 5 -10 10 3 6 8 10 10 10 2 0 7 -4 10 -10z"/>
</g>
</svg>
