<?xml version="1.0" standalone="no"?>
<!DOCTYPE svg PUBLIC "-//W3C//DTD SVG 20010904//EN"
 "http://www.w3.org/TR/2001/REC-SVG-20010904/DTD/svg10.dtd">
<svg version="1.0" xmlns="http://www.w3.org/2000/svg"
 width="1244.000000pt" height="922.000000pt" viewBox="0 0 1244.000000 922.000000"
 preserveAspectRatio="xMidYMid meet">

<g transform="translate(0.000000,922.000000) scale(0.100000,-0.100000)"
fill="#000000" stroke="none">
<path d="M11750 8544 l-62 -67 -64 64 c-50 50 -66 61 -76 51 -10 -10 1 -26 52
-77 l64 -65 -62 -63 c-53 -53 -61 -66 -49 -76 12 -10 26 0 76 56 l61 68 65
-65 c52 -52 67 -62 77 -51 11 10 1 23 -49 68 -35 30 -63 60 -63 66 0 6 27 39
61 73 50 50 58 63 46 72 -12 10 -26 0 -77 -54z"/>
<path d="M3224 8575 c-10 -25 4 -45 30 -45 25 0 39 20 30 45 -4 8 -17 15 -30
15 -14 0 -27 -7 -30 -15z"/>
<path d="M6620 8560 c0 -28 3 -31 28 -28 21 2 27 8 27 28 0 20 -6 26 -27 28
-25 3 -28 0 -28 -28z"/>
<path d="M3840 8430 l0 -150 30 0 30 0 0 150 0 150 -30 0 -30 0 0 -150z"/>
<path d="M5140 8431 l0 -150 53 -1 c28 0 63 -1 76 -1 58 -2 91 41 91 117 0 37
-6 51 -29 75 -31 31 -83 39 -122 19 -18 -10 -19 -7 -19 40 0 47 -2 50 -25 50
l-25 0 0 -149z m154 -3 c22 -31 20 -64 -4 -88 -42 -42 -100 -13 -100 50 0 45
14 60 56 60 23 0 38 -7 48 -22z"/>
<path d="M5660 8430 l0 -150 25 0 25 0 0 150 0 150 -25 0 -25 0 0 -150z"/>
<path d="M3590 8420 l0 -140 30 0 c29 0 30 1 30 50 l0 50 65 0 c63 0 65 1 65
25 0 24 -2 25 -65 25 l-65 0 0 40 0 40 75 0 c73 0 75 1 75 25 l0 25 -105 0
-105 0 0 -140z"/>
<path d="M4630 8420 l0 -140 100 0 c100 0 100 0 100 25 0 23 -3 24 -72 27
l-73 3 -3 113 c-3 112 -3 112 -27 112 l-25 0 0 -140z"/>
<path d="M5860 8420 l0 -140 78 0 c60 0 84 5 110 20 84 52 79 202 -9 247 -13
7 -59 13 -101 13 l-78 0 0 -140z m165 65 c19 -18 25 -35 25 -65 0 -58 -33 -90
-95 -90 l-45 0 0 90 0 90 45 0 c35 0 52 -6 70 -25z"/>
<path d="M3230 8390 l0 -110 25 0 25 0 0 110 0 110 -25 0 -25 0 0 -110z"/>
<path d="M3340 8390 l0 -110 25 0 c24 0 25 2 25 73 0 80 9 97 52 97 37 0 48
-24 48 -104 0 -64 1 -66 25 -66 25 0 25 1 25 88 0 75 -3 92 -20 110 -22 24
-77 30 -110 12 -13 -7 -21 -7 -25 0 -3 5 -15 10 -26 10 -18 0 -19 -8 -19 -110z"/>
<path d="M4004 8491 c-75 -33 -86 -153 -18 -197 35 -23 111 -23 146 0 54 35
61 131 13 176 -27 25 -104 37 -141 21z m98 -58 c26 -23 24 -78 -4 -97 -32 -23
-55 -20 -84 10 -20 19 -24 31 -19 52 12 50 69 69 107 35z"/>
<path d="M4190 8494 c0 -4 16 -54 36 -111 44 -124 58 -131 93 -43 13 33 27 60
31 60 4 0 18 -27 31 -60 35 -88 49 -81 93 43 20 57 36 107 36 111 0 4 -12 6
-26 4 -23 -3 -29 -11 -46 -68 l-20 -64 -27 64 c-16 36 -34 65 -41 65 -7 0 -25
-29 -40 -64 l-27 -64 -19 64 c-17 57 -23 64 -47 67 -15 2 -27 0 -27 -4z"/>
<path d="M4909 8485 c-28 -15 -49 -60 -49 -104 0 -65 75 -123 131 -103 13 5
41 7 62 4 l37 -4 0 106 c0 89 -3 108 -16 113 -9 3 -24 1 -34 -5 -10 -6 -22 -7
-31 -1 -21 13 -70 10 -100 -6z m109 -47 c7 -7 12 -31 12 -55 0 -37 -4 -45 -26
-55 -21 -10 -31 -9 -52 3 -33 18 -43 77 -17 103 19 19 66 21 83 4z"/>
<path d="M5437 8480 c-73 -57 -44 -186 44 -204 61 -12 155 31 118 55 -8 5 -21
6 -29 2 -8 -4 -32 -7 -54 -7 -29 -1 -42 4 -53 22 l-15 22 87 0 88 0 -6 42 c-8
59 -43 88 -106 88 -34 0 -56 -6 -74 -20z m116 -42 l22 -23 -59 -3 c-69 -4 -79
3 -47 29 31 25 56 24 84 -3z"/>
<path d="M6191 8486 c-51 -28 -66 -106 -31 -163 32 -53 116 -65 178 -25 21 14
22 16 6 33 -15 16 -19 17 -37 4 -28 -20 -72 -19 -91 1 -28 27 -18 33 67 36
l82 3 -2 30 c-5 64 -41 95 -111 95 -20 -1 -48 -7 -61 -14z m103 -42 c27 -26
18 -34 -39 -34 -41 0 -55 4 -55 15 0 32 67 46 94 19z"/>
<path d="M6423 8485 c-16 -11 -23 -26 -23 -49 0 -40 13 -52 71 -69 48 -14 63
-41 29 -50 -11 -3 -35 -1 -53 4 -34 10 -53 0 -44 -24 7 -19 79 -28 123 -15 23
6 38 18 45 35 18 49 6 62 -93 102 -55 21 -21 51 38 33 29 -9 34 -8 40 10 8 27
2 31 -59 35 -37 3 -58 0 -74 -12z"/>
<path d="M6620 8390 l0 -110 25 0 25 0 0 110 0 110 -25 0 -25 0 0 -110z"/>
<path d="M6753 8476 c-25 -21 -28 -31 -28 -81 0 -50 3 -60 28 -81 30 -26 83
-32 118 -14 16 9 19 7 19 -9 0 -30 -36 -44 -97 -38 -51 5 -54 4 -51 -16 6 -44
131 -45 175 -1 22 22 23 31 23 144 l0 120 -25 0 c-14 0 -25 -5 -25 -10 0 -7
-6 -7 -19 0 -35 18 -88 12 -118 -14z m125 -38 c17 -17 15 -73 -2 -87 -25 -21
-79 -9 -95 20 -13 24 -13 29 2 53 13 19 26 26 50 26 18 0 38 -5 45 -12z"/>
<path d="M7000 8390 l0 -110 25 0 c24 0 25 2 25 73 0 80 9 97 52 97 37 0 48
-24 48 -104 0 -64 1 -66 25 -66 25 0 25 1 25 88 0 75 -3 92 -20 110 -22 24
-77 30 -110 12 -13 -7 -21 -7 -25 0 -3 5 -15 10 -26 10 -18 0 -19 -8 -19 -110z"/>
<path d="M7291 8486 c-51 -28 -66 -106 -31 -163 32 -53 116 -65 178 -25 21 14
22 16 6 33 -15 16 -19 17 -37 4 -28 -20 -72 -19 -91 1 -28 27 -18 33 67 36
l82 3 -2 30 c-5 64 -41 95 -111 95 -20 -1 -48 -7 -61 -14z m103 -42 c27 -26
18 -34 -39 -34 -41 0 -55 4 -55 15 0 32 67 46 94 19z"/>
<path d="M7510 8390 l0 -110 25 0 c24 0 25 2 25 63 0 72 14 98 53 100 22 2 27
7 27 30 0 22 -5 27 -23 27 -13 0 -28 -5 -35 -12 -9 -9 -15 -9 -24 0 -7 7 -20
12 -30 12 -16 0 -18 -11 -18 -110z"/>
<path d="M2282 7784 c-248 -54 -519 -187 -700 -343 -184 -158 -364 -426 -476
-707 -58 -148 -79 -251 -80 -394 0 -121 1 -129 43 -250 24 -69 72 -191 107
-271 232 -526 537 -836 963 -980 65 -22 219 -59 247 -59 2 0 5 -831 6 -1847
l3 -1848 29 -63 c36 -78 113 -151 194 -184 l57 -23 4741 2 4740 2 59 22 c75
28 155 102 192 178 l28 56 3 3298 2 3297 -5025 0 -5025 0 0 65 c0 75 3 73
-108 49z m108 -1484 l0 -1339 -52 5 c-158 16 -306 74 -468 184 -263 178 -462
459 -628 881 -67 172 -82 236 -82 355 0 418 306 887 722 1109 145 77 357 142
471 144 l37 1 0 -1340z m9010 970 c24 -14 58 -45 75 -68 l30 -44 3 -1354 c2
-1321 2 -1355 -17 -1392 -27 -52 -78 -100 -121 -113 -23 -6 -466 -9 -1321 -7
l-1285 3 -37 25 c-21 14 -50 43 -65 64 l-27 39 -3 1346 c-2 936 0 1357 8 1383
18 64 73 115 150 139 14 4 597 7 1295 6 l1270 -2 45 -25z m-3345 -457 c22 -12
54 -36 72 -55 67 -69 63 6 63 -1208 0 -1214 4 -1139 -63 -1208 -18 -19 -50
-43 -72 -55 l-40 -22 -1880 0 c-1787 0 -1882 1 -1927 18 -57 22 -123 91 -137
143 -15 54 -15 2194 0 2247 12 43 68 111 110 133 16 8 45 18 66 23 22 5 831 8
1903 8 l1865 -2 40 -22z m3357 -2998 c25 -18 52 -49 66 -75 l22 -45 -2 -1077
-3 -1076 -30 -43 c-16 -23 -48 -52 -70 -63 l-40 -21 -3944 -3 c-2857 -1 -3955
1 -3985 9 -53 14 -120 81 -135 134 -15 54 -15 2093 0 2148 13 49 63 105 114
128 39 18 186 19 4002 16 l3961 -2 44 -30z"/>
<path d="M9430 6590 l0 -220 220 0 220 0 0 220 0 220 -220 0 -220 0 0 -220z
m360 0 l0 -130 -135 0 -135 0 0 130 0 130 135 0 135 0 0 -130z"/>
<path d="M9610 6590 l0 -40 45 0 45 0 0 40 0 40 -45 0 -45 0 0 -40z"/>
<path d="M9960 6680 l0 -130 130 0 130 0 0 40 0 40 -85 0 -85 0 0 90 0 90 -45
0 -45 0 0 -130z"/>
<path d="M10140 6765 l0 -45 40 0 40 0 0 45 0 45 -40 0 -40 0 0 -45z"/>
<path d="M10310 6590 l0 -220 220 0 220 0 0 220 0 220 -220 0 -220 0 0 -220z
m350 0 l0 -130 -130 0 -130 0 0 130 0 130 130 0 130 0 0 -130z"/>
<path d="M10490 6590 l0 -40 40 0 40 0 0 40 0 40 -40 0 -40 0 0 -40z"/>
<path d="M9960 6415 l0 -45 90 0 90 0 0 -85 0 -85 40 0 40 0 0 130 0 130 -130
0 -130 0 0 -45z"/>
<path d="M9430 6240 l0 -40 90 0 90 0 0 -90 0 -90 45 0 45 0 0 130 0 130 -135
0 -135 0 0 -40z"/>
<path d="M9790 6150 l0 -130 130 0 130 0 0 45 0 45 -90 0 -90 0 0 85 0 85 -40
0 -40 0 0 -130z"/>
<path d="M9960 6240 l0 -40 45 0 45 0 0 40 0 40 -45 0 -45 0 0 -40z"/>
<path d="M10310 6240 l0 -40 45 0 45 0 0 40 0 40 -45 0 -45 0 0 -40z"/>
<path d="M10490 6240 l0 -40 130 0 130 0 0 40 0 40 -130 0 -130 0 0 -40z"/>
<path d="M9430 6065 l0 -45 45 0 45 0 0 45 0 45 -45 0 -45 0 0 -45z"/>
<path d="M10140 6065 l0 -45 40 0 40 0 0 45 0 45 -40 0 -40 0 0 -45z"/>
<path d="M10310 6020 l0 -90 -85 0 -85 0 0 -40 0 -40 130 0 130 0 0 130 0 130
-45 0 -45 0 0 -90z"/>
<path d="M10490 6065 l0 -45 85 0 85 0 0 -85 0 -85 45 0 45 0 0 130 0 130
-130 0 -130 0 0 -45z"/>
<path d="M9430 5715 l0 -215 220 0 220 0 0 215 0 215 -220 0 -220 0 0 -215z
m355 0 l0 -130 -130 0 -130 0 -3 119 c-1 66 0 126 2 133 4 11 34 13 133 11
l128 -3 0 -130z"/>
<path d="M9610 5715 l0 -45 45 0 45 0 0 45 0 45 -45 0 -45 0 0 -45z"/>
<path d="M9960 5890 l0 -40 45 0 45 0 0 40 0 40 -45 0 -45 0 0 -40z"/>
<path d="M10490 5890 l0 -40 40 0 40 0 0 40 0 40 -40 0 -40 0 0 -40z"/>
<path d="M9960 5715 l0 -45 90 0 90 0 0 -85 0 -85 40 0 40 0 0 130 0 130 -130
0 -130 0 0 -45z"/>
<path d="M10310 5715 l0 -45 45 0 45 0 0 45 0 45 -45 0 -45 0 0 -45z"/>
<path d="M10488 5673 l-3 -88 -87 -3 -88 -3 0 -39 0 -40 130 0 130 0 0 130 0
130 -40 0 -39 0 -3 -87z"/>
<path d="M10660 5630 l0 -130 45 0 45 0 0 130 0 130 -45 0 -45 0 0 -130z"/>
<path d="M9960 5540 l0 -40 45 0 45 0 0 40 0 40 -45 0 -45 0 0 -40z"/>
<path d="M9670 5205 c0 -88 1 -95 20 -95 18 0 20 7 20 57 l0 57 58 -57 c32
-31 63 -57 70 -57 9 0 12 27 12 95 0 88 -1 95 -20 95 -18 0 -20 -7 -20 -62
l-1 -63 -57 63 c-31 34 -63 62 -69 62 -10 0 -13 -26 -13 -95z"/>
<path d="M9899 5239 c-43 -43 -14 -132 43 -130 13 0 38 1 56 1 l32 1 0 73 0
72 -56 1 c-43 1 -60 -3 -75 -18z m82 -19 c21 -12 25 -50 7 -68 -19 -19 -56
-14 -68 8 -15 28 3 61 38 69 2 1 12 -4 23 -9z"/>
<path d="M10070 5183 c0 -66 2 -73 20 -73 18 0 20 7 20 54 0 41 4 55 16 60 28
11 44 -13 44 -65 0 -42 3 -49 20 -49 18 0 20 7 20 54 0 56 12 72 45 60 11 -5
15 -21 15 -60 0 -47 2 -54 20 -54 18 0 20 7 20 58 0 81 -35 111 -91 81 -13 -7
-24 -7 -32 -1 -7 6 -36 10 -64 9 l-53 -1 0 -73z"/>
<path d="M10362 5237 c-27 -29 -29 -77 -4 -107 21 -27 90 -33 116 -11 24 20 5
34 -28 21 -19 -7 -33 -7 -47 0 -34 19 -20 30 36 30 52 0 55 1 55 25 0 60 -85
88 -128 42z m88 -22 c11 -13 7 -15 -29 -15 -38 0 -50 8 -34 23 12 12 50 7 63
-8z"/>
<path d="M9236 4945 c-34 -34 -17 -67 44 -82 25 -7 35 -15 35 -29 0 -16 -6
-19 -47 -17 -47 3 -64 -9 -32 -21 27 -10 89 -7 102 6 16 16 15 53 0 65 -7 6
-30 16 -50 22 -63 20 -42 57 23 44 25 -5 31 -3 27 8 -7 21 -82 24 -102 4z"/>
<path d="M9380 4875 c0 -50 4 -85 10 -85 6 0 10 8 10 17 0 9 8 25 17 35 17 19
18 18 48 -18 46 -55 65 -39 21 17 l-35 46 30 29 c32 30 37 44 15 44 -8 0 -32
-21 -55 -47 l-40 -48 -1 48 c0 26 -4 47 -10 47 -6 0 -10 -35 -10 -85z"/>
<path d="M9550 4891 c0 -82 13 -101 70 -101 53 0 70 26 70 107 0 49 -3 63 -15
63 -12 0 -15 -14 -15 -65 0 -53 -3 -66 -19 -75 -43 -23 -71 12 -71 89 0 28 -4
51 -10 51 -6 0 -10 -30 -10 -69z"/>
<path d="M9810 4953 c0 -3 12 -22 26 -41 l26 -34 -31 -44 c-27 -39 -29 -44
-11 -44 10 0 27 13 37 30 9 17 21 30 25 30 4 0 15 -13 25 -30 9 -16 26 -30 36
-30 16 0 14 6 -12 44 l-30 43 30 42 c27 36 28 41 12 41 -10 0 -27 -13 -36 -30
-10 -16 -21 -30 -25 -30 -4 0 -16 14 -25 30 -16 26 -47 42 -47 23z"/>
<path d="M9999 4919 l30 -42 -30 -43 c-26 -38 -28 -44 -12 -44 10 0 27 14 36
30 10 17 21 30 25 30 4 0 16 -14 27 -30 11 -16 28 -30 37 -30 15 0 12 8 -13
44 l-31 44 26 34 c30 40 32 48 12 48 -8 0 -23 -13 -33 -30 -9 -16 -21 -30 -25
-30 -4 0 -15 14 -25 30 -9 17 -26 30 -36 30 -16 0 -15 -5 12 -41z"/>
<path d="M10168 4918 l29 -43 -29 -40 c-36 -50 -17 -63 22 -15 l27 33 23 -31
c13 -18 30 -32 37 -32 18 0 17 7 -14 47 -29 37 -29 33 15 101 24 36 -12 29
-39 -9 l-22 -31 -24 31 c-39 49 -60 40 -25 -11z"/>
<path d="M10419 4919 l30 -42 -30 -43 c-26 -38 -28 -44 -12 -44 10 0 27 14 36
30 10 17 21 30 25 30 4 0 16 -14 27 -30 11 -16 28 -30 37 -30 15 0 12 8 -13
44 l-31 44 26 34 c30 40 32 48 12 48 -8 0 -23 -13 -33 -30 -9 -16 -21 -30 -25
-30 -4 0 -15 14 -25 30 -9 17 -26 30 -36 30 -16 0 -15 -5 12 -41z"/>
<path d="M10572 4938 c44 -68 44 -64 15 -101 -31 -41 -33 -47 -13 -47 8 0 23
14 33 30 9 17 21 30 24 30 4 0 17 -13 29 -30 26 -37 61 -44 38 -7 -45 68 -44
63 -15 104 34 48 15 59 -23 13 l-27 -33 -22 32 c-27 37 -63 46 -39 9z"/>
<path d="M10730 4953 c0 -3 12 -22 26 -41 l26 -34 -31 -44 c-27 -39 -29 -44
-11 -44 10 0 27 13 37 30 9 17 21 30 25 30 4 0 15 -13 25 -30 9 -16 26 -30 36
-30 16 0 14 6 -12 44 l-30 43 30 42 c27 36 28 41 12 41 -10 0 -27 -13 -36 -30
-10 -16 -21 -30 -25 -30 -4 0 -16 14 -25 30 -16 26 -47 42 -47 23z"/>
<path d="M9720 4870 c0 -5 16 -10 35 -10 19 0 35 5 35 10 0 6 -16 10 -35 10
-19 0 -35 -4 -35 -10z"/>
<path d="M10300 4870 c0 -5 18 -10 40 -10 22 0 40 5 40 10 0 6 -18 10 -40 10
-22 0 -40 -4 -40 -10z"/>
<path d="M5750 6285 c0 -88 1 -95 20 -95 18 0 20 7 20 57 l0 57 58 -57 c32
-31 63 -57 70 -57 9 0 12 27 12 95 0 88 -1 95 -20 95 -18 0 -20 -7 -20 -62
l-1 -63 -57 63 c-31 34 -63 62 -69 62 -10 0 -13 -26 -13 -95z"/>
<path d="M5986 6319 c-53 -42 -22 -132 45 -131 87 2 79 -6 79 75 l0 74 -49 1
c-36 1 -57 -5 -75 -19z m78 -22 c12 -9 17 -23 14 -42 -3 -27 -7 -30 -38 -30
-31 0 -35 3 -38 30 -3 26 17 55 38 55 3 0 14 -6 24 -13z"/>
<path d="M6155 6332 c-3 -3 -5 -36 -5 -74 0 -61 2 -68 20 -68 17 0 20 7 20 50
0 37 4 52 18 58 31 17 42 3 42 -54 0 -47 2 -54 20 -54 18 0 20 7 20 54 0 49 9
66 35 66 17 0 35 -39 35 -76 0 -32 4 -44 15 -44 12 0 15 13 15 59 0 73 -17 96
-64 87 -17 -4 -35 -6 -41 -6 -70 5 -126 6 -130 2z"/>
<path d="M6442 6317 c-27 -29 -29 -77 -4 -107 21 -27 90 -33 116 -11 24 20 5
34 -28 21 -19 -7 -33 -7 -47 0 -34 19 -20 30 36 30 52 0 55 1 55 25 0 60 -85
88 -128 42z m88 -22 c11 -13 7 -15 -29 -15 -38 0 -50 8 -34 23 12 12 50 7 63
-8z"/>
<path d="M4890 5505 l0 -505 70 0 70 0 0 505 0 505 -70 0 -70 0 0 -505z"/>
<path d="M5110 5505 l0 -505 25 0 25 0 0 505 0 505 -25 0 -25 0 0 -505z"/>
<path d="M5230 5505 l0 -505 35 0 35 0 0 505 0 505 -35 0 -35 0 0 -505z"/>
<path d="M5360 5505 l0 -505 25 0 25 0 0 505 0 505 -25 0 -25 0 0 -505z"/>
<path d="M5450 5505 l0 -505 25 0 25 0 0 505 0 505 -25 0 -25 0 0 -505z"/>
<path d="M5540 5505 l0 -505 55 0 55 0 0 505 0 505 -55 0 -55 0 0 -505z"/>
<path d="M5720 5505 l0 -505 35 0 35 0 0 505 0 505 -35 0 -35 0 0 -505z"/>
<path d="M5870 5505 l0 -505 25 0 25 0 0 505 0 505 -25 0 -25 0 0 -505z"/>
<path d="M6000 5505 l0 -505 65 0 65 0 0 505 0 505 -65 0 -65 0 0 -505z"/>
<path d="M6210 5505 l0 -505 25 0 25 0 0 505 0 505 -25 0 -25 0 0 -505z"/>
<path d="M6340 5505 l0 -505 30 0 30 0 0 505 0 505 -30 0 -30 0 0 -505z"/>
<path d="M6470 5505 l0 -505 25 0 25 0 0 505 0 505 -25 0 -25 0 0 -505z"/>
<path d="M6560 5505 l0 -505 25 0 25 0 0 505 0 505 -25 0 -25 0 0 -505z"/>
<path d="M6690 5505 l0 -505 60 0 60 0 0 505 0 505 -60 0 -60 0 0 -505z"/>
<path d="M6870 5505 l0 -505 35 0 35 0 0 505 0 505 -35 0 -35 0 0 -505z"/>
<path d="M7020 5505 l0 -505 25 0 25 0 0 505 0 505 -25 0 -25 0 0 -505z"/>
<path d="M7130 5505 l0 -505 25 0 25 0 0 505 0 505 -25 0 -25 0 0 -505z"/>
<path d="M7260 5505 l0 -505 30 0 30 0 0 505 0 505 -30 0 -30 0 0 -505z"/>
<path d="M7390 5505 c0 -498 0 -505 20 -505 20 0 20 7 20 505 0 498 0 505 -20
505 -20 0 -20 -7 -20 -505z"/>
<path d="M5506 4798 c4 -7 16 -25 27 -39 19 -27 19 -27 -7 -65 -33 -49 -14
-60 23 -15 l26 32 18 -31 c10 -16 25 -30 33 -30 19 0 18 5 -11 47 l-24 37 24
32 c28 37 30 44 13 44 -7 0 -23 -12 -35 -27 l-23 -28 -21 28 c-20 27 -58 40
-43 15z"/>
<path d="M5694 4777 c32 -42 32 -50 0 -93 -24 -31 -25 -34 -7 -34 10 0 27 14
37 32 l19 31 27 -33 c37 -46 58 -35 24 12 l-27 38 27 40 c32 49 11 57 -26 10
l-23 -30 -20 30 c-11 17 -28 30 -38 30 -16 0 -15 -4 7 -33z"/>
<path d="M5940 4804 c0 -3 11 -20 25 -38 l24 -32 -24 -37 c-29 -42 -30 -47
-11 -47 8 0 23 14 33 30 l18 31 26 -32 c36 -45 56 -34 24 14 l-26 37 26 37
c31 46 13 60 -22 17 l-24 -29 -22 28 c-20 24 -47 36 -47 21z"/>
<path d="M6136 4770 l27 -40 -27 -38 c-34 -47 -13 -58 24 -12 l27 33 19 -31
c10 -18 27 -32 37 -32 16 0 15 4 -8 37 -31 46 -31 48 1 90 22 29 23 33 7 33
-10 0 -28 -14 -39 -31 l-22 -31 -18 31 c-10 17 -26 31 -36 31 -16 0 -15 -5 8
-40z"/>
<path d="M6304 4777 c32 -42 32 -50 0 -93 -24 -31 -25 -34 -7 -34 10 0 27 14
37 32 l19 31 27 -33 c37 -46 58 -35 24 12 l-27 38 27 40 c32 49 11 57 -26 10
l-23 -30 -20 30 c-11 17 -28 30 -38 30 -16 0 -15 -4 7 -33z"/>
<path d="M6460 4804 c0 -3 11 -20 25 -38 l24 -32 -24 -37 c-29 -42 -30 -47
-11 -47 8 0 23 14 33 30 l18 31 26 -32 c36 -45 56 -34 24 14 l-26 37 26 37
c31 46 13 60 -22 17 l-24 -29 -22 28 c-20 24 -47 36 -47 21z"/>
<path d="M6656 4770 l27 -40 -27 -38 c-34 -47 -13 -58 24 -12 l27 33 19 -31
c10 -18 27 -32 37 -32 16 0 15 4 -8 37 -31 46 -31 48 1 90 22 29 23 33 7 33
-10 0 -28 -14 -39 -31 l-22 -31 -18 31 c-10 17 -26 31 -36 31 -16 0 -15 -5 8
-40z"/>
<path d="M5840 4725 c0 -13 8 -16 38 -13 20 2 37 8 37 13 0 6 -17 11 -37 13
-30 3 -38 0 -38 -13z"/>
<path d="M9465 3401 c-22 -13 -31 -26 -33 -49 -3 -27 2 -35 27 -50 21 -11 31
-25 31 -40 0 -21 -3 -23 -29 -17 -20 4 -30 2 -34 -9 -6 -15 12 -26 44 -26 10
0 19 -7 19 -15 0 -8 4 -15 9 -15 5 0 11 7 15 15 3 8 12 15 20 15 9 0 23 11 32
25 21 33 6 71 -31 81 -18 4 -25 13 -25 31 0 22 3 24 24 19 42 -10 41 22 -1 39
-19 8 -36 15 -37 14 0 0 -14 -8 -31 -18z m25 -51 c0 -21 -15 -27 -25 -10 -7
12 2 30 16 30 5 0 9 -9 9 -20z m45 -90 c0 -7 -6 -15 -12 -17 -8 -3 -13 4 -13
17 0 13 5 20 13 18 6 -3 12 -11 12 -18z"/>
<path d="M9644 3398 c-49 -23 -60 -118 -20 -165 19 -22 32 -28 65 -28 61 0 86
30 86 101 0 49 -4 59 -28 80 -29 25 -67 30 -103 12z m86 -47 c35 -66 -26 -144
-74 -95 -19 18 -21 85 -4 102 19 19 66 15 78 -7z"/>
<path d="M9835 3385 c-19 -18 -25 -35 -25 -69 0 -65 17 -94 60 -107 77 -23
136 47 111 132 -21 70 -98 93 -146 44z m99 -37 c9 -12 16 -32 16 -43 0 -31
-28 -65 -54 -65 -31 0 -50 25 -50 65 0 18 6 40 13 49 19 23 57 20 75 -6z"/>
<path d="M10105 3385 c-19 -18 -25 -35 -25 -69 0 -65 17 -94 60 -107 77 -23
136 47 111 132 -21 70 -98 93 -146 44z m99 -37 c9 -12 16 -32 16 -43 0 -31
-28 -65 -54 -65 -31 0 -50 25 -50 65 0 18 6 40 13 49 19 23 57 20 75 -6z"/>
<path d="M10313 3386 c-24 -21 -28 -31 -28 -80 0 -71 25 -101 86 -101 33 0 46
6 65 28 41 48 28 143 -23 166 -38 17 -69 13 -100 -13z m95 -28 c17 -17 15 -84
-4 -102 -48 -49 -109 29 -74 95 12 22 59 26 78 7z"/>
<path d="M6520 3305 c0 -88 1 -95 20 -95 18 0 20 7 20 57 l0 57 58 -57 c32
-31 63 -57 70 -57 9 0 12 27 12 95 0 88 -1 95 -20 95 -18 0 -20 -7 -20 -57 l0
-57 -58 57 c-32 31 -63 57 -70 57 -9 0 -12 -27 -12 -95z"/>
<path d="M6750 3340 c-26 -26 -27 -91 -2 -113 13 -12 35 -17 75 -16 l57 2 0
72 0 71 -55 2 c-43 1 -60 -3 -75 -18z m81 -20 c22 -13 25 -52 5 -70 -39 -32
-89 17 -60 59 17 24 27 26 55 11z"/>
<path d="M6920 3284 c0 -67 2 -74 20 -74 18 0 20 7 20 54 0 46 3 56 20 61 32
10 40 -3 40 -61 0 -47 2 -54 20 -54 18 0 20 7 20 54 0 46 3 56 20 61 32 10 40
-3 40 -61 0 -47 2 -54 20 -54 18 0 20 7 20 58 0 86 -2 87 -130 88 l-110 1 0
-73z"/>
<path d="M7210 3340 c-12 -12 -20 -33 -20 -55 0 -47 29 -75 78 -75 21 0 47 7
58 15 21 16 18 18 -45 19 -69 2 -66 26 3 26 55 0 56 1 56 28 0 16 -8 36 -18
45 -26 24 -87 22 -112 -3z m90 -25 c11 -13 7 -15 -29 -15 -38 0 -50 8 -34 23
12 12 50 7 63 -8z"/>
<path d="M10013 3234 c-8 -21 13 -42 28 -27 13 13 5 43 -11 43 -6 0 -13 -7
-17 -16z"/>
<path d="M6520 2615 l0 -395 60 0 60 0 0 395 0 395 -60 0 -60 0 0 -395z"/>
<path d="M6710 2615 c0 -388 0 -395 20 -395 20 0 20 7 20 395 0 388 0 395 -20
395 -20 0 -20 -7 -20 -395z"/>
<path d="M6820 2615 l0 -395 30 0 30 0 0 395 0 395 -30 0 -30 0 0 -395z"/>
<path d="M6940 2615 c0 -388 0 -395 20 -395 20 0 20 7 20 395 0 388 0 395 -20
395 -20 0 -20 -7 -20 -395z"/>
<path d="M7020 2615 c0 -388 0 -395 20 -395 20 0 20 7 20 395 0 388 0 395 -20
395 -20 0 -20 -7 -20 -395z"/>
<path d="M7100 2615 l0 -395 50 0 50 0 0 395 0 395 -50 0 -50 0 0 -395z"/>
<path d="M7260 2615 l0 -395 30 0 30 0 0 395 0 395 -30 0 -30 0 0 -395z"/>
<path d="M7390 2615 c0 -388 0 -395 20 -395 20 0 20 7 20 395 0 388 0 395 -20
395 -20 0 -20 -7 -20 -395z"/>
<path d="M7510 2615 l0 -395 60 0 60 0 0 395 0 395 -60 0 -60 0 0 -395z"/>
<path d="M7700 2615 c0 -388 0 -395 20 -395 20 0 20 7 20 395 0 388 0 395 -20
395 -20 0 -20 -7 -20 -395z"/>
<path d="M7810 2615 l0 -395 30 0 30 0 0 395 0 395 -30 0 -30 0 0 -395z"/>
<path d="M7930 2615 c0 -388 0 -395 20 -395 20 0 20 7 20 395 0 388 0 395 -20
395 -20 0 -20 -7 -20 -395z"/>
<path d="M8010 2615 c0 -388 0 -395 20 -395 20 0 20 7 20 395 0 388 0 395 -20
395 -20 0 -20 -7 -20 -395z"/>
<path d="M8090 2615 l0 -395 50 0 50 0 0 395 0 395 -50 0 -50 0 0 -395z"/>
<path d="M8250 2615 l0 -395 30 0 30 0 0 395 0 395 -30 0 -30 0 0 -395z"/>
<path d="M8380 2615 c0 -388 0 -395 20 -395 20 0 20 7 20 395 0 388 0 395 -20
395 -20 0 -20 -7 -20 -395z"/>
<path d="M8480 2615 l0 -395 60 0 60 0 0 395 0 395 -60 0 -60 0 0 -395z"/>
<path d="M8670 2615 c0 -388 0 -395 20 -395 20 0 20 7 20 395 0 388 0 395 -20
395 -20 0 -20 -7 -20 -395z"/>
<path d="M8780 2615 l0 -395 30 0 30 0 0 395 0 395 -30 0 -30 0 0 -395z"/>
<path d="M8900 2615 c0 -388 0 -395 20 -395 20 0 20 7 20 395 0 388 0 395 -20
395 -20 0 -20 -7 -20 -395z"/>
<path d="M8980 2615 c0 -388 0 -395 20 -395 20 0 20 7 20 395 0 388 0 395 -20
395 -20 0 -20 -7 -20 -395z"/>
<path d="M9060 2615 l0 -395 50 0 50 0 0 395 0 395 -50 0 -50 0 0 -395z"/>
<path d="M9220 2615 l0 -395 30 0 30 0 0 395 0 395 -30 0 -30 0 0 -395z"/>
<path d="M9350 2615 c0 -388 0 -395 20 -395 20 0 20 7 20 395 0 388 0 395 -20
395 -20 0 -20 -7 -20 -395z"/>
<path d="M9470 2615 l0 -395 60 0 60 0 0 395 0 395 -60 0 -60 0 0 -395z"/>
<path d="M9660 2615 c0 -388 0 -395 20 -395 20 0 20 7 20 395 0 388 0 395 -20
395 -20 0 -20 -7 -20 -395z"/>
<path d="M9770 2615 l0 -395 30 0 30 0 0 395 0 395 -30 0 -30 0 0 -395z"/>
<path d="M9890 2615 c0 -388 0 -395 20 -395 20 0 20 7 20 395 0 388 0 395 -20
395 -20 0 -20 -7 -20 -395z"/>
<path d="M9970 2615 c0 -388 0 -395 20 -395 20 0 20 7 20 395 0 388 0 395 -20
395 -20 0 -20 -7 -20 -395z"/>
<path d="M10050 2615 l0 -395 50 0 50 0 0 395 0 395 -50 0 -50 0 0 -395z"/>
<path d="M10210 2615 l0 -395 30 0 30 0 0 395 0 395 -30 0 -30 0 0 -395z"/>
<path d="M10340 2615 c0 -388 0 -395 20 -395 20 0 20 7 20 395 0 388 0 395
-20 395 -20 0 -20 -7 -20 -395z"/>
<path d="M4545 2898 c-148 -16 -271 -31 -272 -32 -6 -6 21 -124 44 -194 33
-101 56 -144 100 -193 46 -50 81 -69 132 -69 35 0 43 5 70 42 32 44 38 76 20
110 -6 11 -8 22 -5 25 13 13 49 -35 86 -112 44 -92 103 -164 164 -200 23 -13
82 -34 131 -46 137 -32 236 -15 269 49 7 15 26 72 40 126 15 55 36 114 47 133
23 37 65 63 102 63 17 0 49 26 111 90 81 84 106 121 106 156 0 20 -24 17 -45
-6 -10 -11 -55 -43 -99 -72 l-81 -52 -250 27 c-323 35 -394 35 -480 0 -58 -24
-68 -25 -105 -14 -22 6 -60 30 -85 51 -26 22 -50 40 -56 40 -5 0 -9 4 -9 8 0
10 377 63 448 62 43 0 58 -5 77 -25 14 -13 25 -29 25 -35 0 -5 9 -10 20 -10
46 0 5 56 -62 84 -64 27 -161 26 -443 -6z"/>
<path d="M6502 2008 c44 -68 44 -65 22 -95 -35 -48 -36 -53 -17 -53 10 0 27
14 37 32 l19 31 26 -32 c31 -37 62 -45 39 -8 -44 66 -43 62 -15 99 15 19 27
38 27 41 0 17 -26 4 -50 -25 l-26 -31 -23 31 c-27 38 -63 47 -39 10z"/>
<path d="M6689 1986 l30 -43 -30 -42 c-28 -37 -29 -41 -11 -41 12 0 28 13 40
31 l20 31 23 -31 c12 -17 29 -31 36 -31 17 0 16 7 -5 38 -10 15 -22 32 -25 38
-3 6 5 26 18 44 28 38 31 50 13 50 -7 0 -22 -14 -33 -30 -11 -16 -23 -30 -27
-30 -4 0 -15 14 -25 30 -9 17 -26 30 -36 30 -16 0 -14 -6 12 -44z"/>
<path d="M6930 2023 c0 -3 12 -22 27 -41 28 -37 29 -33 -15 -99 -23 -37 8 -29
39 8 l26 32 19 -31 c10 -18 27 -32 37 -32 18 0 18 1 3 23 -39 53 -40 62 -12
103 33 49 14 60 -24 14 l-27 -33 -23 31 c-21 29 -50 43 -50 25z"/>
<path d="M7112 2008 c44 -68 44 -65 22 -95 -35 -48 -36 -53 -17 -53 10 0 27
14 37 32 l19 31 26 -32 c31 -37 62 -45 39 -8 -44 66 -43 62 -15 99 15 19 27
38 27 41 0 17 -26 4 -50 -25 l-26 -31 -23 31 c-27 38 -63 47 -39 10z"/>
<path d="M7299 1986 l30 -43 -30 -42 c-28 -37 -29 -41 -11 -41 12 0 28 13 40
31 l20 31 23 -31 c12 -17 29 -31 36 -31 17 0 16 7 -5 38 -10 15 -22 32 -25 38
-3 6 5 26 18 44 28 38 31 50 13 50 -7 0 -22 -14 -33 -30 -11 -16 -23 -30 -27
-30 -4 0 -15 14 -25 30 -9 17 -26 30 -36 30 -16 0 -14 -6 12 -44z"/>
<path d="M7450 2023 c0 -3 12 -22 27 -41 28 -37 29 -33 -15 -99 -23 -37 8 -29
39 8 l26 32 19 -31 c10 -18 27 -32 37 -32 18 0 18 1 3 23 -39 53 -40 62 -12
103 33 49 14 60 -24 14 l-27 -33 -23 31 c-21 29 -50 43 -50 25z"/>
<path d="M6830 1940 c0 -5 18 -10 40 -10 22 0 40 5 40 10 0 6 -18 10 -40 10
-22 0 -40 -4 -40 -10z"/>
</g>
</svg>
