<?xml version="1.0" standalone="no"?>
<!DOCTYPE svg PUBLIC "-//W3C//DTD SVG 20010904//EN"
 "http://www.w3.org/TR/2001/REC-SVG-20010904/DTD/svg10.dtd">
<svg version="1.0" xmlns="http://www.w3.org/2000/svg"
 width="405.000000pt" height="545.000000pt" viewBox="0 0 405.000000 545.000000"
 preserveAspectRatio="xMidYMid meet">

<g transform="translate(0.000000,545.000000) scale(0.100000,-0.100000)"
fill="#000000" stroke="none">
<path d="M945 5386 c-192 -47 -285 -189 -285 -438 l0 -67 -57 27 c-49 22 -72
26 -148 26 -145 1 -228 -39 -318 -149 -111 -138 -144 -260 -132 -485 8 -151
24 -239 64 -358 36 -108 156 -351 255 -517 40 -66 98 -164 130 -217 114 -192
141 -288 134 -480 -5 -146 -20 -190 -117 -342 -69 -108 -199 -361 -226 -441
-22 -65 -31 -214 -16 -286 38 -180 192 -336 360 -362 l71 -11 0 -325 c0 -180
5 -355 11 -391 31 -196 145 -297 361 -321 51 -6 438 -9 960 -6 751 3 880 5
923 18 136 42 210 110 258 236 21 57 22 72 25 591 3 498 4 533 20 527 55 -21
153 -37 262 -42 116 -5 130 -4 197 19 87 31 194 100 257 168 105 113 126 225
82 444 -15 71 -38 153 -53 182 -84 172 -275 315 -597 448 l-166 69 0 184 c0
100 3 183 8 183 4 0 23 -5 42 -10 41 -12 114 2 145 28 104 87 146 252 90 361
-41 82 -141 131 -228 112 l-37 -9 0 223 c0 139 -4 226 -10 230 -6 4 -10 154
-10 418 0 438 -6 500 -50 586 -47 94 -133 156 -248 180 -78 16 -1889 14 -1957
-3z m343 -144 c7 -5 15 -26 19 -48 3 -21 12 -51 20 -66 29 -59 23 -58 605 -58
511 0 534 1 565 20 38 22 63 67 63 109 0 48 24 54 174 48 151 -6 193 -16 242
-59 69 -60 78 -93 82 -275 l4 -163 -524 0 c-287 0 -527 -4 -533 -8 -10 -7 -16
-36 -15 -77 0 -32 -33 -116 -45 -112 -9 3 -9 29 0 102 1 11 3 32 4 48 1 18 6
27 19 27 16 1 16 1 0 10 -10 7 -214 9 -545 8 l-528 -3 70 -21 c39 -12 92 -25
119 -28 27 -3 50 -7 51 -9 1 -1 -1 -36 -6 -77 -38 -368 -39 -384 -27 -391 20
-12 28 0 29 44 2 30 3 34 6 14 2 -15 15 -39 29 -54 29 -31 18 -44 -30 -33 -81
19 -116 32 -111 40 3 5 -3 8 -12 8 -10 -1 -60 9 -110 22 -89 24 -93 26 -93 53
0 34 24 45 49 23 10 -9 27 -16 39 -16 11 0 24 -4 27 -10 3 -5 17 -10 30 -10
13 0 31 -7 39 -16 21 -20 23 -14 32 101 5 58 9 81 14 65 4 -16 13 -25 25 -25
30 0 28 49 -2 53 -19 3 -23 10 -23 42 0 27 6 42 18 49 13 8 3 10 -40 11 l-58
0 0 -60 c0 -33 -4 -60 -10 -60 -6 0 -10 32 -10 75 l0 75 68 0 c47 0 63 3 52
10 -8 5 -38 10 -67 10 -56 0 -82 -16 -84 -53 -5 -127 -3 -154 9 -150 6 3 12
-2 12 -11 0 -9 -6 -13 -14 -10 -10 4 -17 -5 -22 -28 l-8 -33 -6 34 c-5 35 -30
56 -30 25 0 -13 -4 -11 -20 8 -18 24 -20 45 -22 335 l-3 309 30 59 c34 67 90
109 165 124 58 11 271 13 288 3z m946 -34 c8 -13 8 -23 0 -35 -16 -26 -51 -28
-64 -4 -25 47 36 83 64 39z m-147 -14 c10 -27 -18 -34 -154 -34 -145 0 -163 3
-163 31 0 18 10 19 155 19 133 0 157 -2 162 -16z m-910 -561 c-3 -10 -5 -2 -5
17 0 19 2 27 5 18 2 -10 2 -26 0 -35z m100 -20 c-3 -10 -5 -4 -5 12 0 17 2 24
5 18 2 -7 2 -21 0 -30z m100 -45 c-2 -13 -4 -5 -4 17 -1 22 1 32 4 23 2 -10 2
-28 0 -40z m-210 -20 c-2 -13 -4 -3 -4 22 0 25 2 35 4 23 2 -13 2 -33 0 -45z
m1753 -18 c0 -87 -18 -93 -22 -7 l-3 62 -60 6 -60 6 73 1 72 2 0 -70z m-1653
-2 c-2 -13 -4 -5 -4 17 -1 22 1 32 4 23 2 -10 2 -28 0 -40z m-264 3 c3 -14 1
-18 -9 -14 -8 3 -14 11 -14 19 0 21 17 17 23 -5z m364 -38 c-3 -10 -5 -2 -5
17 0 19 2 27 5 18 2 -10 2 -26 0 -35z m-210 -45 c-2 -13 -4 -3 -4 22 0 25 2
35 4 23 2 -13 2 -33 0 -45z m714 38 c5 3 9 -4 9 -16 0 -43 -43 -295 -52 -305
-6 -6 -7 -3 -3 8 8 19 -10 24 -18 5 -3 -7 -6 -3 -6 10 -1 13 3 21 8 18 5 -3
11 1 15 9 3 8 1 17 -4 20 -6 4 -10 15 -10 25 0 14 5 18 18 13 14 -5 15 -3 5 8
-14 14 -18 73 -5 66 4 -3 8 14 8 38 2 55 15 124 21 107 3 -6 9 -10 14 -6z
m-614 -48 c-2 -13 -4 -5 -4 17 -1 22 1 32 4 23 2 -10 2 -28 0 -40z m100 -35
c-3 -10 -5 -2 -5 17 0 19 2 27 5 18 2 -10 2 -26 0 -35z m-210 -55 c-2 -13 -4
-3 -4 22 0 25 2 35 4 23 2 -13 2 -33 0 -45z m-210 -5 c-3 -10 -5 -4 -5 12 0
17 2 24 5 18 2 -7 2 -21 0 -30z m310 0 c-3 -10 -5 -4 -5 12 0 17 2 24 5 18 2
-7 2 -21 0 -30z m100 -20 c-3 -10 -5 -4 -5 12 0 17 2 24 5 18 2 -7 2 -21 0
-30z m-110 -80 c-3 -10 -5 -4 -5 12 0 17 2 24 5 18 2 -7 2 -21 0 -30z m100 0
c-3 -10 -5 -4 -5 12 0 17 2 24 5 18 2 -7 2 -21 0 -30z m1683 -63 c0 -5 -4 -10
-9 -10 -6 0 -13 5 -16 10 -3 6 1 10 9 10 9 0 16 -4 16 -10z m-55 -42 c5 -13
12 -15 33 -9 41 12 52 -7 52 -93 0 -56 -4 -75 -15 -80 -8 -3 -15 -2 -15 2 0 4
-14 8 -32 8 -17 1 -36 8 -42 16 -6 8 -15 14 -21 12 -5 -1 -22 -5 -37 -8 -19
-4 -26 -11 -22 -21 4 -8 1 -15 -5 -15 -6 0 -10 4 -8 9 1 5 -11 20 -26 35 -15
14 -25 31 -22 36 3 5 0 7 -8 4 -13 -4 -12 3 1 50 8 31 19 56 24 56 5 0 7 -4 4
-9 -4 -5 3 -7 14 -4 11 3 20 11 20 18 0 8 11 11 31 9 23 -3 30 0 26 10 -4 11
-1 11 19 2 13 -6 26 -19 29 -28z m-1594 -1 c-10 -9 -11 -8 -5 6 3 10 9 15 12
12 3 -3 0 -11 -7 -18z m454 -33 c-9 -61 -14 -74 -31 -74 -21 0 -17 53 6 73 11
9 20 24 20 32 0 8 3 15 6 15 4 0 3 -21 -1 -46z m-322 16 c3 -11 1 -18 -4 -14
-5 3 -9 12 -9 20 0 20 7 17 13 -6z m44 -12 c-3 -8 -6 -5 -6 6 -1 11 2 17 5 13
3 -3 4 -12 1 -19z m-87 3 c0 -5 -9 -7 -20 -4 -11 3 -20 7 -20 9 0 2 9 4 20 4
11 0 20 -4 20 -9z m150 -34 c0 -5 -4 -5 -10 -2 -5 3 -10 14 -10 23 0 15 2 15
10 2 5 -8 10 -19 10 -23z m37 1 c-3 -8 -6 -5 -6 6 -1 11 2 17 5 13 3 -3 4 -12
1 -19z m1273 -179 l0 -69 -70 0 c-40 0 -70 4 -70 10 0 6 27 10 60 10 l60 0 0
66 c0 41 4 63 10 59 6 -3 10 -37 10 -76z m-1960 11 l0 -60 60 0 c33 0 60 -4
60 -10 0 -6 -30 -10 -70 -10 l-70 0 0 70 c0 40 4 70 10 70 6 0 10 -27 10 -60z
m778 4 c38 -18 46 -64 13 -64 -23 0 -36 16 -22 25 12 7 3 35 -10 35 -5 0 -9
-13 -9 -30 0 -16 -4 -30 -10 -30 -5 0 -10 14 -10 30 0 17 -4 30 -10 30 -5 0
-10 5 -10 10 0 15 33 12 68 -6z m179 -6 c14 2 23 -4 28 -17 9 -31 -2 -42 -42
-38 -31 2 -37 6 -38 27 -3 32 3 42 18 33 7 -4 22 -6 34 -5z m-89 -24 c2 -14
-6 -27 -22 -38 l-26 -16 0 40 c0 37 2 41 23 38 13 -2 23 -11 25 -24z m190 -4
c0 -23 -4 -30 -18 -30 -15 0 -18 6 -16 28 5 34 3 32 19 32 9 0 14 -12 15 -30z
m110 -2 c3 -25 1 -26 -43 -26 -47 1 -63 14 -52 42 4 10 20 14 49 13 39 -2 43
-5 46 -29z m49 -3 c1 -20 0 -23 -4 -7 -2 12 -8 22 -13 22 -5 0 -11 -10 -13
-22 -3 -16 -5 -13 -6 10 -1 27 2 33 17 30 11 -2 18 -13 19 -33z m883 -436 l0
-249 -1127 2 -1128 3 -3 242 -2 242 102 3 c57 2 565 3 1131 4 l1027 1 0 -248z
m-2175 -290 c11 -16 -4 -59 -20 -59 -16 0 -31 43 -20 59 3 6 12 11 20 11 8 0
17 -5 20 -11z m105 2 c0 -5 -5 -11 -10 -13 -6 -2 27 -2 72 0 192 7 206 4 192
-31 -8 -23 -171 -21 -184 2 -8 14 -9 14 -10 0 0 -13 -11 -16 -50 -16 -45 1
-50 3 -50 24 0 13 -5 23 -11 23 -5 0 -7 5 -4 10 8 13 55 13 55 1z m2068 -1321
c2 -857 -1 -1239 -8 -1270 -16 -65 -52 -115 -107 -147 l-48 -28 -960 0 -960 0
-40 22 c-51 27 -89 67 -112 118 -17 38 -18 110 -21 1275 -1 679 0 1240 2 1247
4 11 217 13 1128 11 l1123 -3 3 -1225z"/>
<path d="M995 5171 c-8 -15 3 -31 21 -31 8 0 12 -5 9 -10 -4 -6 -12 -7 -18 -4
-8 5 -8 3 1 -7 16 -18 35 1 30 32 -3 25 -31 38 -43 20z m35 -11 c0 -5 -4 -10
-10 -10 -5 0 -10 5 -10 10 0 6 5 10 10 10 6 0 10 -4 10 -10z"/>
<path d="M1097 5160 c-16 -24 -16 -25 4 -32 28 -11 30 -8 21 27 l-8 29 -17
-24z"/>
<path d="M1145 5170 c-3 -5 -2 -10 4 -10 5 0 12 -10 14 -22 3 -17 5 -14 6 10
1 31 -11 43 -24 22z"/>
<path d="M2660 5150 c0 -16 5 -30 10 -30 6 0 10 14 10 30 0 17 -4 30 -10 30
-5 0 -10 -13 -10 -30z"/>
<path d="M2722 5171 c-8 -5 4 -8 31 -7 25 1 43 4 40 9 -6 10 -55 9 -71 -2z"/>
<path d="M2637 5163 c-11 -10 -8 -43 3 -43 6 0 10 11 10 25 0 26 -2 29 -13 18z"/>
<path d="M2845 5160 c-12 -19 17 -40 55 -40 38 0 67 21 55 40 -3 5 -28 10 -55
10 -27 0 -52 -5 -55 -10z"/>
<path d="M2736 5151 c-3 -5 5 -8 19 -8 14 0 22 3 19 8 -3 5 -11 9 -19 9 -8 0
-16 -4 -19 -9z"/>
<path d="M2611 5134 c0 -11 3 -14 6 -6 3 7 2 16 -1 19 -3 4 -6 -2 -5 -13z"/>
<path d="M2750 5130 c0 -5 5 -10 11 -10 5 0 7 5 4 10 -3 6 -8 10 -11 10 -2 0
-4 -4 -4 -10z"/>
<path d="M2915 4898 l-60 -63 63 60 c34 33 62 61 62 62 0 8 -10 -1 -65 -59z"/>
<path d="M955 4922 c-11 -10 -29 -29 -40 -42 l-20 -24 26 19 c22 16 65 66 57
65 -2 -1 -12 -9 -23 -18z"/>
<path d="M2882 4920 c0 -14 2 -19 5 -12 2 6 2 18 0 25 -3 6 -5 1 -5 -13z"/>
<path d="M1792 4900 c0 -19 2 -27 5 -17 2 9 2 25 0 35 -3 9 -5 1 -5 -18z"/>
<path d="M1816 4905 c-3 -8 -1 -15 4 -15 6 0 10 7 10 15 0 8 -2 15 -4 15 -2 0
-6 -7 -10 -15z"/>
<path d="M2962 4890 c0 -19 2 -27 5 -17 2 9 2 25 0 35 -3 9 -5 1 -5 -18z"/>
<path d="M1852 4890 c0 -14 2 -19 5 -12 2 6 2 18 0 25 -3 6 -5 1 -5 -13z"/>
<path d="M1982 4890 c0 -14 2 -19 5 -12 2 6 2 18 0 25 -3 6 -5 1 -5 -13z"/>
<path d="M2012 4890 c0 -14 2 -19 5 -12 2 6 2 18 0 25 -3 6 -5 1 -5 -13z"/>
<path d="M2037 4889 c4 -13 8 -18 11 -10 2 7 -1 18 -6 23 -8 8 -9 4 -5 -13z"/>
<path d="M2941 4874 c0 -11 3 -14 6 -6 3 7 2 16 -1 19 -3 4 -6 -2 -5 -13z"/>
<path d="M1910 3880 c0 -5 5 -10 10 -10 6 0 10 5 10 10 0 6 -4 10 -10 10 -5 0
-10 -4 -10 -10z"/>
<path d="M1800 3879 c0 -5 5 -7 10 -4 6 3 10 8 10 11 0 2 -4 4 -10 4 -5 0 -10
-5 -10 -11z"/>
<path d="M2047 3884 c-4 -4 -4 -10 -2 -14 6 -10 45 0 45 11 0 10 -33 12 -43 3z"/>
<path d="M901 3573 c0 -21 3 -31 6 -23 3 8 11 18 17 22 8 5 7 8 -1 8 -19 0
-16 18 5 23 13 4 11 5 -5 6 -20 1 -23 -4 -22 -36z"/>
<path d="M1371 3578 c-1 -30 3 -38 17 -38 11 0 13 3 5 8 -6 4 -13 21 -16 37
-4 27 -4 27 -6 -7z"/>
<path d="M1098 3570 c-5 -32 6 -41 16 -14 9 23 7 44 -3 44 -5 0 -11 -13 -13
-30z"/>
<path d="M1498 3595 c-7 -7 3 -55 11 -55 8 0 7 47 -1 55 -2 3 -7 3 -10 0z"/>
<path d="M950 3575 c-10 -11 -10 -19 -2 -27 15 -15 44 -2 40 19 -4 23 -22 27
-38 8z m30 -16 c0 -5 -4 -9 -10 -9 -5 0 -10 7 -10 16 0 8 5 12 10 9 6 -3 10
-10 10 -16z"/>
<path d="M1012 3581 c-8 -5 -12 -16 -10 -25 2 -12 6 -10 15 9 6 14 10 25 10
25 -1 0 -8 -4 -15 -9z"/>
<path d="M1137 3584 c-16 -16 -7 -44 14 -44 15 0 20 5 17 22 -3 22 -19 33 -31
22z m23 -19 c0 -8 -4 -15 -10 -15 -5 0 -10 7 -10 15 0 8 5 15 10 15 6 0 10 -7
10 -15z"/>
<path d="M1208 3563 c5 -21 7 -23 10 -9 2 10 0 22 -6 28 -6 6 -7 0 -4 -19z"/>
<path d="M1268 3563 c5 -21 7 -23 10 -9 2 10 0 22 -6 28 -6 6 -7 0 -4 -19z"/>
<path d="M1306 3583 c7 -4 14 -17 17 -28 5 -16 5 -15 4 4 -1 14 -9 26 -17 28
-10 3 -11 2 -4 -4z"/>
<path d="M1420 3575 c-14 -17 -5 -35 18 -34 11 0 12 3 5 6 -7 2 -13 12 -13 21
0 15 2 15 10 2 6 -9 10 -10 10 -3 0 19 -17 24 -30 8z"/>
<path d="M1472 3565 c0 -16 2 -22 5 -12 2 9 2 23 0 30 -3 6 -5 -1 -5 -18z"/>
<path d="M1541 3580 c-19 -11 -6 -40 16 -39 16 1 16 2 1 6 -10 3 -15 10 -11
19 5 13 7 13 14 2 6 -9 9 -9 9 -1 0 17 -14 23 -29 13z"/>
<path d="M1242 3560 c0 -14 2 -19 5 -12 2 6 2 18 0 25 -3 6 -5 1 -5 -13z"/>
<path d="M1391 2949 c-14 -41 -14 -41 9 -27 17 11 22 10 30 -2 13 -20 12 -10
-1 29 -6 17 -15 31 -19 31 -4 0 -13 -14 -19 -31z m29 1 c0 -5 -4 -10 -10 -10
-5 0 -10 5 -10 10 0 6 5 10 10 10 6 0 10 -4 10 -10z"/>
<path d="M1466 2960 c-20 -21 -16 -50 8 -50 8 0 15 13 18 35 5 40 1 42 -26 15z
m14 -26 c0 -8 -4 -12 -10 -9 -5 3 -10 10 -10 16 0 5 5 9 10 9 6 0 10 -7 10
-16z"/>
<path d="M1620 2947 c0 -14 4 -28 9 -32 5 -3 8 6 7 20 -4 35 -16 44 -16 12z"/>
<path d="M1514 2945 c-7 -17 3 -35 19 -34 9 0 9 2 0 6 -7 2 -13 12 -13 20 0
10 6 13 16 9 8 -3 12 -2 9 4 -9 15 -25 12 -31 -5z"/>
<path d="M1560 2931 c0 -24 4 -28 19 -24 37 10 37 53 0 53 -14 0 -19 -7 -19
-29z m31 6 c-1 -12 -15 -9 -19 4 -3 6 1 10 8 8 6 -3 11 -8 11 -12z"/>
<path d="M888 2873 c18 -2 45 -2 60 0 15 2 0 4 -33 4 -33 0 -45 -2 -27 -4z"/>
<path d="M993 2863 c-7 -2 -13 -22 -13 -42 0 -50 25 -73 77 -69 32 2 40 8 53
35 8 18 18 33 21 33 3 0 13 -16 22 -36 16 -33 20 -35 60 -32 44 3 57 17 72 80
6 25 4 27 -29 33 -19 4 -57 1 -85 -6 -39 -10 -56 -10 -76 -1 -26 12 -79 15
-102 5z"/>
<path d="M843 2810 c0 -30 2 -43 4 -27 2 15 2 39 0 55 -2 15 -4 2 -4 -28z"/>
<path d="M1897 2706 c-3 -8 1 -17 9 -20 19 -7 18 -24 -3 -29 -17 -4 -17 -5 0
-6 22 -1 34 28 16 40 -12 8 -12 11 1 19 13 8 13 10 -1 10 -9 0 -19 -6 -22 -14z"/>
<path d="M1951 2702 c-13 -25 11 -63 29 -46 14 14 9 56 -7 61 -6 2 -16 -4 -22
-15z m29 -17 c0 -14 -4 -25 -10 -25 -5 0 -10 11 -10 25 0 14 5 25 10 25 6 0
10 -11 10 -25z"/>
<path d="M1612 2690 c0 -14 2 -19 5 -12 2 6 2 18 0 25 -3 6 -5 1 -5 -13z"/>
<path d="M1542 2465 c0 -22 2 -32 5 -22 2 9 8 17 13 17 5 0 11 -8 13 -17 4
-14 5 -12 6 5 1 13 -5 22 -13 22 -8 0 -17 8 -19 18 -3 9 -5 -1 -5 -23z"/>
<path d="M1392 2465 c-7 -14 -12 -27 -12 -28 0 -1 14 -2 30 -2 17 0 30 1 30 2
0 1 -4 13 -10 27 -12 33 -24 33 -38 1z m28 -5 c0 -5 -4 -10 -10 -10 -5 0 -10
5 -10 10 0 6 5 10 10 10 6 0 10 -4 10 -10z"/>
<path d="M1450 2450 c0 -11 4 -20 9 -20 5 0 11 9 14 20 3 13 0 20 -9 20 -8 0
-14 -9 -14 -20z"/>
<path d="M1497 2463 c-10 -9 -9 -33 1 -33 4 0 8 9 8 20 0 23 0 22 -9 13z"/>
<path d="M1594 2459 c-3 -6 -1 -16 5 -22 8 -8 11 -5 11 11 0 24 -5 28 -16 11z"/>
<path d="M1624 2450 c0 -11 4 -20 8 -20 4 0 8 9 8 20 0 11 -4 20 -8 20 -4 0
-8 -9 -8 -20z"/>
<path d="M1650 2450 c0 -11 2 -20 4 -20 2 0 6 9 9 20 3 11 1 20 -4 20 -5 0 -9
-9 -9 -20z"/>
<path d="M1680 2450 c0 -11 4 -20 9 -20 5 0 7 9 4 20 -3 11 -7 20 -9 20 -2 0
-4 -9 -4 -20z"/>
<path d="M850 2395 l0 -65 65 0 65 0 0 65 0 65 -65 0 -65 0 0 -65z m110 25 c0
-5 -13 -24 -29 -42 l-30 -33 -22 22 c-26 25 -19 44 7 22 15 -12 19 -11 37 14
21 27 37 35 37 17z"/>
<path d="M1048 2414 c-11 -10 4 -43 23 -49 26 -9 39 2 39 31 0 20 -5 24 -28
24 -16 0 -31 -3 -34 -6z"/>
<path d="M1150 2395 c0 -14 2 -25 4 -25 2 0 11 -3 19 -6 17 -6 47 21 47 42 0
9 -11 14 -35 14 -31 0 -35 -3 -35 -25z"/>
<path d="M1833 2362 c-31 -3 -33 -6 -33 -43 l0 -39 178 2 177 3 3 38 3 37
-110 0 c-82 0 -111 -3 -112 -12 -1 -7 -2 -22 -3 -33 -1 -16 -9 -21 -44 -23
-40 -3 -43 -2 -37 17 4 13 2 21 -6 21 -9 0 -8 4 1 15 18 22 30 18 30 -10 0
-17 5 -25 18 -24 10 0 12 3 5 6 -21 8 -15 33 10 42 19 7 17 9 -13 7 -19 0 -50
-2 -67 -4z m287 -42 c0 -19 -6 -20 -70 -18 -60 2 -70 5 -70 20 0 16 9 18 70
18 64 0 70 -2 70 -20z"/>
<path d="M1441 2332 c-14 -27 -14 -28 9 -28 21 0 25 12 11 35 -7 11 -11 10
-20 -7z"/>
<path d="M1542 2325 c0 -16 2 -22 5 -12 2 9 2 23 0 30 -3 6 -5 -1 -5 -18z"/>
<path d="M1619 2341 c12 -8 12 -12 2 -25 -11 -14 -11 -16 4 -16 10 0 15 3 12
6 -3 4 -2 15 4 25 8 16 6 19 -13 19 -18 0 -20 -2 -9 -9z"/>
<path d="M1660 2346 c0 -2 7 -7 16 -10 8 -3 12 -2 9 4 -6 10 -25 14 -25 6z"/>
<path d="M1506 2315 c4 -8 11 -15 16 -15 6 0 5 6 -2 15 -7 8 -14 15 -16 15 -2
0 -1 -7 2 -15z"/>
<path d="M1561 2314 c0 -11 3 -14 6 -6 3 7 2 16 -1 19 -3 4 -6 -2 -5 -13z"/>
<path d="M1665 2310 c-3 -5 1 -10 10 -10 9 0 13 5 10 10 -3 6 -8 10 -10 10 -2
0 -7 -4 -10 -10z"/>
<path d="M1380 2120 c0 -25 4 -30 25 -30 21 0 25 5 25 30 0 17 -4 30 -9 30 -5
0 -8 -11 -6 -25 1 -15 -3 -25 -10 -25 -7 0 -11 10 -10 25 2 14 -1 25 -6 25 -5
0 -9 -13 -9 -30z"/>
<path d="M1602 2120 c0 -19 2 -27 5 -17 2 9 2 25 0 35 -3 9 -5 1 -5 -18z"/>
<path d="M1472 2110 c0 -14 2 -19 5 -12 2 6 2 18 0 25 -3 6 -5 1 -5 -13z"/>
<path d="M1501 2108 c1 -17 2 -19 6 -5 2 9 8 17 13 17 5 0 11 -8 13 -17 4 -14
5 -12 6 5 1 16 -5 22 -19 22 -14 0 -20 -6 -19 -22z"/>
<path d="M1550 2124 c0 -3 7 -12 15 -20 16 -17 18 -14 9 10 -6 15 -24 23 -24
10z"/>
<path d="M1627 2110 c3 -11 7 -20 9 -20 2 0 4 9 4 20 0 11 -4 20 -9 20 -5 0
-7 -9 -4 -20z"/>
<path d="M1650 2110 c0 -11 4 -20 8 -20 4 0 8 9 9 20 1 11 -2 20 -8 20 -5 0
-9 -9 -9 -20z"/>
<path d="M1704 2119 c-3 -6 -1 -16 5 -22 8 -8 11 -5 11 11 0 24 -5 28 -16 11z"/>
<path d="M1445 2100 c-3 -5 -1 -10 4 -10 6 0 11 5 11 10 0 6 -2 10 -4 10 -3 0
-8 -4 -11 -10z"/>
<path d="M843 1980 c0 -30 2 -43 4 -27 2 15 2 39 0 55 -2 15 -4 2 -4 -28z"/>
<path d="M983 2004 c-14 -36 40 -73 89 -61 13 4 30 18 36 32 10 21 9 26 -8 35
-31 17 -110 13 -117 -6z"/>
<path d="M1168 2009 c-23 -13 -23 -32 0 -52 37 -34 116 -8 110 36 -2 18 -10
22 -48 24 -25 2 -53 -2 -62 -8z"/>
<path d="M888 1913 c18 -2 45 -2 60 0 15 2 0 4 -33 4 -33 0 -45 -2 -27 -4z"/>
<path d="M1860 1880 c0 -5 6 -7 13 -4 9 3 13 -3 12 -18 -2 -14 -8 -22 -16 -20
-11 3 -11 1 -2 -8 17 -18 32 -4 31 30 -1 22 -6 30 -20 30 -10 0 -18 -4 -18
-10z"/>
<path d="M1390 1655 c-18 -22 -8 -50 20 -52 25 -3 25 -3 3 7 -13 5 -23 16 -23
25 0 9 10 20 23 25 15 6 17 9 6 9 -9 1 -22 -6 -29 -14z"/>
<path d="M1503 1635 c0 -22 2 -30 4 -17 2 12 2 30 0 40 -3 9 -5 -1 -4 -23z"/>
<path d="M1450 1635 c-10 -11 -10 -19 -2 -27 15 -15 44 -2 40 19 -4 23 -22 27
-38 8z m27 -21 c-9 -9 -28 6 -21 18 4 6 10 6 17 -1 6 -6 8 -13 4 -17z"/>
<path d="M1533 1634 c-8 -21 13 -42 28 -27 13 13 5 43 -11 43 -6 0 -13 -7 -17
-16z m27 -9 c0 -8 -4 -15 -10 -15 -5 0 -10 7 -10 15 0 8 5 15 10 15 6 0 10 -7
10 -15z"/>
<path d="M1585 1641 c-3 -5 -1 -12 5 -16 6 -4 8 -11 5 -16 -4 -5 -2 -9 4 -9
15 0 23 18 11 25 -6 4 -8 11 -5 16 4 5 2 9 -4 9 -5 0 -12 -4 -16 -9z"/>
<path d="M1630 1635 c0 -8 6 -15 13 -15 8 0 7 -4 -3 -10 -9 -6 -10 -10 -3 -10
16 0 26 17 13 25 -6 4 -8 11 -5 16 4 5 1 9 -4 9 -6 0 -11 -7 -11 -15z"/>
<path d="M1671 1628 c-1 -22 4 -28 19 -28 15 0 20 6 19 28 -2 23 -2 24 -6 5
-2 -13 -8 -23 -13 -23 -5 0 -11 10 -13 23 -4 19 -4 18 -6 -5z"/>
<path d="M1732 1625 c2 -25 12 -32 23 -16 3 5 1 12 -5 16 -6 4 -8 11 -5 16 4
5 1 9 -4 9 -6 0 -10 -11 -9 -25z"/>
<path d="M979 1521 c3 -33 33 -70 56 -70 6 0 2 4 -7 10 -26 15 -22 27 8 21 15
-3 23 -10 20 -17 -9 -24 8 -26 27 -3 10 13 16 16 12 8 -4 -8 3 -4 15 9 l21 24
31 -31 c30 -31 48 -40 48 -24 0 4 -5 13 -12 20 -9 9 -5 12 21 12 30 0 32 -2
21 -17 -7 -10 2 -3 19 15 18 19 31 41 29 50 -5 25 -60 26 -113 3 -41 -18 -49
-19 -68 -6 -12 8 -47 18 -77 23 l-56 8 5 -35z"/>
<path d="M843 1495 c0 -33 2 -45 4 -27 2 18 2 45 0 60 -2 15 -4 0 -4 -33z"/>
<path d="M1857 1403 c-13 -12 -7 -33 8 -33 21 0 19 -18 -2 -23 -17 -4 -17 -5
0 -6 22 -1 34 28 16 40 -12 8 -12 11 1 19 13 8 13 10 -1 10 -9 0 -19 -3 -22
-7z"/>
<path d="M1914 1384 c-19 -28 -7 -51 20 -41 18 7 22 37 5 37 -6 0 -9 7 -5 15
9 23 -2 18 -20 -11z m26 -24 c0 -5 -4 -10 -10 -10 -5 0 -10 5 -10 10 0 6 5 10
10 10 6 0 10 -4 10 -10z"/>
<path d="M1610 1376 c0 -8 4 -17 9 -20 5 -4 7 3 4 14 -6 23 -13 26 -13 6z"/>
<path d="M1380 1150 c0 -16 5 -30 10 -30 6 0 10 14 10 30 0 17 -4 30 -10 30
-5 0 -10 -13 -10 -30z"/>
<path d="M1773 1145 c0 -22 2 -30 4 -17 2 12 2 30 0 40 -3 9 -5 -1 -4 -23z"/>
<path d="M1680 1147 c0 -14 4 -28 8 -31 9 -5 8 41 -1 51 -4 3 -7 -5 -7 -20z"/>
<path d="M1411 1133 c2 -24 2 -25 6 -5 2 12 8 22 13 22 5 0 11 -10 13 -22 l4
-23 2 23 c0 12 5 22 10 22 5 0 12 -10 14 -22 4 -20 4 -19 6 5 1 25 -2 27 -34
27 -32 0 -35 -2 -34 -27z"/>
<path d="M1501 1138 c0 -22 1 -22 9 -3 8 20 8 20 16 1 7 -19 8 -19 15 0 7 17
8 17 8 2 1 -10 6 -18 12 -18 6 0 8 7 5 16 -3 9 -6 18 -6 20 0 2 -13 4 -30 4
-25 0 -30 -4 -29 -22z"/>
<path d="M1582 1138 c2 -13 10 -23 18 -23 8 0 16 10 18 23 3 17 -2 22 -18 22
-16 0 -21 -5 -18 -22z m28 -3 c0 -8 -4 -15 -10 -15 -5 0 -10 7 -10 15 0 8 5
15 10 15 6 0 10 -7 10 -15z"/>
<path d="M1640 1140 c0 -11 2 -20 4 -20 2 0 6 9 9 20 3 11 1 20 -4 20 -5 0 -9
-9 -9 -20z"/>
<path d="M1728 1153 c10 -4 9 -8 -4 -17 -12 -9 -14 -15 -6 -20 7 -4 12 -2 12
4 0 6 5 8 10 5 6 -3 10 3 10 14 0 14 -6 21 -17 20 -12 0 -13 -2 -5 -6z"/>
<path d="M850 1087 c0 -72 5 -77 68 -77 57 0 63 9 60 76 l-3 59 -62 3 -63 3 0
-64z m110 21 c-1 -16 -45 -68 -58 -68 -14 0 -43 36 -35 43 3 4 13 1 21 -5 12
-10 18 -8 36 14 23 29 36 35 36 16z"/>
<path d="M1030 1102 c0 -4 7 -17 15 -29 17 -24 52 -21 72 6 10 14 13 14 30 0
32 -28 51 -30 68 -6 8 12 15 25 15 29 0 5 -45 8 -100 8 -55 0 -100 -3 -100 -8z"/>
<path d="M1797 1043 c-4 -3 -7 -15 -7 -25 0 -13 8 -18 30 -18 23 0 28 4 23 16
-3 9 0 20 8 25 10 6 5 9 -17 9 -17 0 -34 -3 -37 -7z"/>
<path d="M1878 1025 c6 -32 20 -32 18 0 0 14 -6 25 -12 25 -7 0 -9 -10 -6 -25z"/>
<path d="M1927 1039 c6 -6 9 -18 6 -25 -4 -10 3 -14 21 -14 16 0 26 6 26 14 0
11 16 14 65 15 51 0 65 -3 65 -14 0 -8 9 -15 20 -15 15 0 20 7 20 25 l0 25
-117 0 c-86 0 -114 -3 -106 -11z"/>
<path d="M1617 1020 c3 -11 7 -20 8 -20 1 0 5 9 8 20 3 12 0 20 -8 20 -8 0
-11 -8 -8 -20z"/>
<path d="M1666 1015 c4 -8 8 -15 10 -15 2 0 4 7 4 15 0 8 -4 15 -10 15 -5 0
-7 -7 -4 -15z"/>
<path d="M1505 1010 c3 -5 8 -10 11 -10 2 0 4 5 4 10 0 6 -5 10 -11 10 -5 0
-7 -4 -4 -10z"/>
<path d="M1555 1010 c-3 -5 -2 -10 4 -10 5 0 13 5 16 10 3 6 2 10 -4 10 -5 0
-13 -4 -16 -10z"/>
<path d="M1438 1003 c6 -2 18 -2 25 0 6 3 1 5 -13 5 -14 0 -19 -2 -12 -5z"/>
<path d="M1750 796 c0 -8 5 -18 11 -22 8 -5 8 -9 -1 -14 -6 -4 7 -7 30 -7 23
0 36 3 30 7 -7 4 -9 13 -6 19 4 6 3 11 -3 11 -5 0 -13 -5 -16 -10 -5 -8 -11
-7 -21 1 -12 10 -12 14 -2 20 10 7 9 9 -4 9 -10 0 -18 -6 -18 -14z"/>
<path d="M1977 793 c-3 -5 -1 -17 4 -28 7 -17 8 -17 8 8 1 27 -4 34 -12 20z"/>
<path d="M1846 782 c6 -4 14 -14 17 -22 4 -10 6 -8 6 8 1 15 -5 22 -16 22 -11
0 -14 -3 -7 -8z"/>
<path d="M1880 768 c1 -22 1 -22 12 -3 11 19 11 19 19 0 7 -19 8 -18 8 3 1 16
-5 22 -19 22 -14 0 -20 -7 -20 -22z"/>
<path d="M1952 770 c0 -14 2 -19 5 -12 2 6 2 18 0 25 -3 6 -5 1 -5 -13z"/>
<path d="M2010 770 c0 -13 6 -20 18 -19 10 0 12 3 5 6 -7 2 -13 9 -13 14 0 6
5 7 10 4 6 -3 10 -1 10 4 0 6 -7 11 -15 11 -8 0 -15 -9 -15 -20z"/>
<path d="M2050 769 c0 -22 0 -22 15 -3 14 19 14 19 15 -1 l1 -20 9 20 c7 17 9
17 9 3 1 -10 6 -18 12 -18 6 0 9 8 7 18 -2 11 -14 18 -36 20 -27 3 -32 0 -32
-19z"/>
<path d="M1530 415 c0 -13 49 -15 402 -13 310 2 402 6 406 16 3 9 -82 12 -402
12 -356 0 -406 -2 -406 -15z"/>
</g>
</svg>
